<?xml version="1.0" encoding="UTF-8" standalone="no"?>
<!-- Created with Inkscape (http://www.inkscape.org/) -->

<svg
   width="210mm"
   height="297mm"
   viewBox="0 0 210 297"
   version="1.1"
   id="svg1"
   xml:space="preserve"
   inkscape:version="1.4.2 (ebf0e940, 2025-05-08)"
   sodipodi:docname="multistay_rigger.svg"
   xmlns:inkscape="http://www.inkscape.org/namespaces/inkscape"
   xmlns:sodipodi="http://sodipodi.sourceforge.net/DTD/sodipodi-0.dtd"
   xmlns:xlink="http://www.w3.org/1999/xlink"
   xmlns="http://www.w3.org/2000/svg"
   xmlns:svg="http://www.w3.org/2000/svg"><sodipodi:namedview
     id="namedview1"
     pagecolor="#ffffff"
     bordercolor="#000000"
     borderopacity="0.25"
     inkscape:showpageshadow="2"
     inkscape:pageopacity="0.0"
     inkscape:pagecheckerboard="0"
     inkscape:deskcolor="#d1d1d1"
     inkscape:document-units="mm"
     inkscape:zoom="2.3610886"
     inkscape:cx="402.99209"
     inkscape:cy="546.78169"
     inkscape:window-width="2560"
     inkscape:window-height="1387"
     inkscape:window-x="1512"
     inkscape:window-y="25"
     inkscape:window-maximized="0"
     inkscape:current-layer="svg1" /><defs
     id="defs1"><linearGradient
       id="linearGradient61"
       inkscape:collect="always"><stop
         style="stop-color:#d1d1d1;stop-opacity:1;"
         offset="0"
         id="stop62" /><stop
         style="stop-color:#999999;stop-opacity:1;"
         offset="1"
         id="stop63" /></linearGradient><linearGradient
       id="linearGradient60"
       inkscape:collect="always"><stop
         style="stop-color:#d3d3d3;stop-opacity:1;"
         offset="0"
         id="stop60" /><stop
         style="stop-color:#989898;stop-opacity:1;"
         offset="1"
         id="stop61" /></linearGradient><linearGradient
       id="linearGradient52"
       inkscape:collect="always"><stop
         style="stop-color:#d4d4d4;stop-opacity:1;"
         offset="0"
         id="stop52" /><stop
         style="stop-color:#9a9a9a;stop-opacity:1;"
         offset="1"
         id="stop53" /></linearGradient><linearGradient
       id="linearGradient49"
       inkscape:collect="always"><stop
         style="stop-color:#999999;stop-opacity:1;"
         offset="0"
         id="stop50" /><stop
         style="stop-color:#b5b5b5;stop-opacity:1;"
         offset="1"
         id="stop51" /></linearGradient><linearGradient
       id="linearGradient47"
       inkscape:collect="always"><stop
         style="stop-color:#d1d1d1;stop-opacity:1;"
         offset="0"
         id="stop48" /><stop
         style="stop-color:#9a9a9a;stop-opacity:1;"
         offset="1"
         id="stop49" /></linearGradient><linearGradient
       id="linearGradient45"
       inkscape:collect="always"><stop
         style="stop-color:#dbdbdb;stop-opacity:1;"
         offset="0"
         id="stop46" /><stop
         style="stop-color:#9a9a9a;stop-opacity:1;"
         offset="1"
         id="stop47" /></linearGradient><linearGradient
       id="linearGradient43"
       inkscape:collect="always"><stop
         style="stop-color:#c5c5c5;stop-opacity:1;"
         offset="0"
         id="stop44" /><stop
         style="stop-color:#989898;stop-opacity:1;"
         offset="1"
         id="stop45" /></linearGradient><linearGradient
       id="linearGradient41"
       inkscape:collect="always"><stop
         style="stop-color:#c0c0c0;stop-opacity:1;"
         offset="0"
         id="stop42" /><stop
         style="stop-color:#999999;stop-opacity:1;"
         offset="1"
         id="stop43" /></linearGradient><linearGradient
       id="linearGradient39"
       inkscape:collect="always"><stop
         style="stop-color:#cccccc;stop-opacity:1;"
         offset="0"
         id="stop40" /><stop
         style="stop-color:#999999;stop-opacity:1;"
         offset="1"
         id="stop41" /></linearGradient><linearGradient
       id="linearGradient37"
       inkscape:collect="always"><stop
         style="stop-color:#c8c8c8;stop-opacity:1;"
         offset="0"
         id="stop38" /><stop
         style="stop-color:#9a9a9a;stop-opacity:1;"
         offset="1"
         id="stop39" /></linearGradient><linearGradient
       id="linearGradient30"
       inkscape:collect="always"><stop
         style="stop-color:#dddddd;stop-opacity:1;"
         offset="0"
         id="stop29" /><stop
         style="stop-color:#9a9a9a;stop-opacity:1;"
         offset="1"
         id="stop30" /></linearGradient><linearGradient
       id="linearGradient26"
       inkscape:collect="always"><stop
         style="stop-color:#cecece;stop-opacity:1;"
         offset="0"
         id="stop26" /><stop
         style="stop-color:#9a9a9a;stop-opacity:1;"
         offset="1"
         id="stop27" /></linearGradient><linearGradient
       id="linearGradient21"
       inkscape:collect="always"><stop
         style="stop-color:#9a9a9a;stop-opacity:1;"
         offset="0.48433048"
         id="stop22" /><stop
         style="stop-color:#ededed;stop-opacity:1;"
         offset="0.49572647"
         id="stop24" /><stop
         style="stop-color:#959595;stop-opacity:1;"
         offset="0.50569797"
         id="stop25" /><stop
         style="stop-color:#9a9a9a;stop-opacity:1;"
         offset="0.5299145"
         id="stop23" /></linearGradient><linearGradient
       id="linearGradient17"
       inkscape:collect="always"><stop
         style="stop-color:#9a9a9a;stop-opacity:1;"
         offset="0.47578347"
         id="stop18" /><stop
         style="stop-color:#7a7a7a;stop-opacity:1;"
         offset="0.49145302"
         id="stop20" /><stop
         style="stop-color:#ededed;stop-opacity:1;"
         offset="0.50498581"
         id="stop21" /><stop
         style="stop-color:#999999;stop-opacity:1;"
         offset="0.51282048"
         id="stop19" /></linearGradient><linearGradient
       inkscape:collect="always"
       xlink:href="#linearGradient17"
       id="linearGradient19"
       x1="118.16822"
       y1="196.28355"
       x2="75.822311"
       y2="61.979477"
       gradientUnits="userSpaceOnUse" /><linearGradient
       inkscape:collect="always"
       xlink:href="#linearGradient21"
       id="linearGradient23"
       x1="71.228226"
       y1="71.869576"
       x2="122.86744"
       y2="202.96336"
       gradientUnits="userSpaceOnUse" /><radialGradient
       inkscape:collect="always"
       xlink:href="#linearGradient30"
       id="radialGradient32"
       cx="79.895531"
       cy="142.63519"
       fx="79.895531"
       fy="142.63519"
       r="2.1441398"
       gradientTransform="matrix(0.69512707,-0.15198778,0.05346344,0.24451887,16.672225,119.7552)"
       gradientUnits="userSpaceOnUse" /><radialGradient
       inkscape:collect="always"
       xlink:href="#linearGradient26"
       id="radialGradient33"
       cx="78.854111"
       cy="136.67606"
       fx="78.854111"
       fy="136.67606"
       r="2.0356567"
       gradientTransform="matrix(0.63675348,-0.17989845,0.05194818,0.18387143,21.474669,125.56513)"
       gradientUnits="userSpaceOnUse" /><radialGradient
       inkscape:collect="always"
       xlink:href="#linearGradient37"
       id="radialGradient39"
       cx="60.573963"
       cy="148.89055"
       fx="60.573963"
       fy="148.89055"
       r="1.5411962"
       gradientTransform="matrix(0.951615,4.212466e-4,-0.00642129,3.1369259,3.8671841,-318.34387)"
       gradientUnits="userSpaceOnUse" /><radialGradient
       inkscape:collect="always"
       xlink:href="#linearGradient39"
       id="radialGradient41"
       cx="120.62069"
       cy="131.15541"
       fx="120.62069"
       fy="131.15541"
       r="1.3031303"
       gradientTransform="matrix(0.78418978,-3.6063315e-4,0.00120046,2.6103929,25.745266,-211.29081)"
       gradientUnits="userSpaceOnUse" /><radialGradient
       inkscape:collect="always"
       xlink:href="#linearGradient41"
       id="radialGradient43"
       cx="131.06834"
       cy="123.03443"
       fx="131.06834"
       fy="123.03443"
       r="1.8840486"
       gradientTransform="matrix(0.55714733,-0.19791457,0.064435,0.18139033,49.90568,125.64314)"
       gradientUnits="userSpaceOnUse" /><radialGradient
       inkscape:collect="always"
       xlink:href="#linearGradient43"
       id="radialGradient45"
       cx="131.15738"
       cy="119.53223"
       fx="131.15738"
       fy="119.53223"
       r="1.9068204"
       gradientTransform="matrix(0.42033841,-0.14684258,0.04143436,0.11860627,70.630904,124.71867)"
       gradientUnits="userSpaceOnUse" /><radialGradient
       inkscape:collect="always"
       xlink:href="#linearGradient45"
       id="radialGradient47"
       cx="26.98111"
       cy="150.40915"
       fx="26.98111"
       fy="150.40915"
       r="3.9422647"
       gradientTransform="matrix(0.70826475,-0.11320413,0.07413139,0.46380529,-3.1659717,83.890311)"
       gradientUnits="userSpaceOnUse" /><radialGradient
       inkscape:collect="always"
       xlink:href="#linearGradient47"
       id="radialGradient49"
       cx="24.426123"
       cy="163.92099"
       fx="24.426123"
       fy="163.92099"
       r="4.1276764"
       gradientTransform="matrix(0.9051717,0.36380569,-0.10952366,0.27250184,20.269515,110.36616)"
       gradientUnits="userSpaceOnUse" /><linearGradient
       inkscape:collect="always"
       xlink:href="#linearGradient49"
       id="linearGradient51"
       x1="15.79189"
       y1="162.46977"
       x2="23.096087"
       y2="152.53944"
       gradientUnits="userSpaceOnUse" /><radialGradient
       inkscape:collect="always"
       xlink:href="#linearGradient52"
       id="radialGradient53"
       cx="170.4482"
       cy="128.38023"
       fx="170.4482"
       fy="128.38023"
       r="12.51511"
       gradientTransform="matrix(-0.1662014,0.07352204,-2.0433657,-4.6191622,466.63981,695.40877)"
       gradientUnits="userSpaceOnUse" /><radialGradient
       inkscape:collect="always"
       xlink:href="#linearGradient52"
       id="radialGradient53-5"
       cx="167.7056"
       cy="128.38731"
       fx="167.7056"
       fy="128.38731"
       r="12.51511"
       gradientTransform="matrix(-0.13110644,0.04890534,-1.9932564,-5.3435636,451.7155,793.93834)"
       gradientUnits="userSpaceOnUse" /><radialGradient
       inkscape:collect="always"
       xlink:href="#linearGradient47"
       id="radialGradient49-1"
       cx="24.426123"
       cy="163.92099"
       fx="24.426123"
       fy="163.92099"
       r="4.1276765"
       gradientTransform="matrix(0.9051717,0.36380569,-0.10952366,0.27250184,20.269515,110.36616)"
       gradientUnits="userSpaceOnUse" /><radialGradient
       inkscape:collect="always"
       xlink:href="#linearGradient45"
       id="radialGradient47-1"
       cx="26.98111"
       cy="150.40915"
       fx="26.98111"
       fy="150.40915"
       r="3.9422648"
       gradientTransform="matrix(0.70826475,-0.11320413,0.07413139,0.46380529,-3.1659717,83.890311)"
       gradientUnits="userSpaceOnUse" /><linearGradient
       inkscape:collect="always"
       xlink:href="#linearGradient49"
       id="linearGradient59"
       gradientUnits="userSpaceOnUse"
       x1="15.79189"
       y1="162.46977"
       x2="23.096087"
       y2="152.53944" /><radialGradient
       inkscape:collect="always"
       xlink:href="#linearGradient60"
       id="radialGradient61"
       cx="179.37047"
       cy="128.16362"
       fx="179.37047"
       fy="128.16362"
       r="1.1496244"
       gradientTransform="matrix(1,0,0,3.2743133,0,-291.48422)"
       gradientUnits="userSpaceOnUse" /><radialGradient
       inkscape:collect="always"
       xlink:href="#linearGradient61"
       id="radialGradient63"
       cx="179.7471"
       cy="131.39932"
       fx="179.7471"
       fy="131.39932"
       r="1.5029595"
       gradientTransform="matrix(1,0,0,0.81649179,0,24.110305)"
       gradientUnits="userSpaceOnUse" /><mask
       maskUnits="userSpaceOnUse"
       id="mask67"><path
         style="fill:#ffffff;fill-opacity:1;stroke:#000000;stroke-width:0.264999;stroke-linecap:square;stroke-linejoin:round;stroke-dasharray:none"
         d="m 170.94085,101.76668 c -0.20776,-0.43569 -0.94325,-0.40669 -1.29471,-0.36429 -0.93592,0.0852 -1.33734,-0.13568 -1.00842,0.67481 0.22599,0.55686 0.75366,1.81627 0.86551,2.0916 0.12861,0.31655 0.44953,0.71609 1.00732,0.70015 0.55779,-0.0159 1.23597,-0.0533 1.34753,-0.0851 0.11156,-0.0319 0.46328,-0.16758 0.2561,-0.566 -0.27591,-0.55569 -0.90633,-1.89119 -1.17333,-2.45112 z"
         id="path68"
         sodipodi:nodetypes="scssscss" /></mask><clipPath
       clipPathUnits="userSpaceOnUse"
       id="clipPath71"><path
         style="fill:#6f6f6f;fill-opacity:1;stroke:#000000;stroke-width:0.264999;stroke-linecap:square;stroke-linejoin:round;stroke-dasharray:none"
         d="m 170.94085,101.76668 c -0.20776,-0.43569 -0.94325,-0.40669 -1.29471,-0.36429 -0.93592,0.0852 -1.33734,-0.13568 -1.00842,0.67481 0.22599,0.55686 0.75366,1.81627 0.86551,2.0916 0.12861,0.31655 0.44953,0.71609 1.00732,0.70015 0.55779,-0.0159 1.23597,-0.0533 1.34753,-0.0851 0.11156,-0.0319 0.46328,-0.16758 0.2561,-0.566 -0.27591,-0.55569 -0.90633,-1.89119 -1.17333,-2.45112 z"
         id="path72"
         sodipodi:nodetypes="scssscss" /></clipPath></defs><path
     style="fill:#a7a7a7;fill-opacity:1;stroke:#000000;stroke-width:0.264999;stroke-linecap:square;stroke-linejoin:round;stroke-dasharray:none"
     d="m 32.666013,147.23564 -2.927431,2.64372 -7.686121,0.94142 -3.327213,-1.43147 c 0,0 5.421157,-0.43044 6.951039,-0.72219 2.088014,-0.39819 6.989726,-1.43148 6.989726,-1.43148 z"
     id="path49"
     sodipodi:nodetypes="ccccsc"
     inkscape:label="frontstay weld top" /><path
     style="fill:#a7a7a7;fill-opacity:1;stroke:#000000;stroke-width:0.264999;stroke-linecap:square;stroke-linejoin:round;stroke-dasharray:none"
     d="m 31.25978,161.73264 -1.397078,2.0028 -7.686121,0.94142 -0.567345,-2.41247 c 0,0 1.750991,0.81698 3.288655,0.67737 2.150389,-0.19525 6.361889,-1.20912 6.361889,-1.20912 z"
     id="path49-3"
     sodipodi:nodetypes="ccccsc"
     inkscape:label="frontstay weld bottom" /><g
     inkscape:groupmode="layer"
     id="layer2"
     inkscape:label="tip"><path
       style="fill:#989898;fill-opacity:1;stroke:#000000;stroke-width:0.264999;stroke-linecap:square;stroke-linejoin:round;stroke-dasharray:none"
       d="m 167.23523,101.11069 -0.10688,3.78839 0.90256,3.26584 c 0,0 0.23752,0.53442 0.52254,0.72443 0.28502,0.19001 0.97381,0.36815 0.97381,0.36815 l 3.2421,-0.095 c 0,0 0.30786,-0.13887 0.49878,-0.33252 0.22372,-0.22692 0.16627,-0.95006 0.16627,-0.95006 l -0.0594,-3.08772 -3.82402,0.45129 z"
       id="path73"
       sodipodi:nodetypes="cccsccscccc" /><path
       style="fill:#a7a7a7;fill-opacity:1;stroke:#000000;stroke-width:0.264999;stroke-linecap:square;stroke-linejoin:round;stroke-dasharray:none"
       d="m 171.76805,101.47033 c -0.30281,-0.63748 -0.8606,-0.89248 -2.21524,-0.82872 -1.67337,0.0637 -2.55487,-0.0346 -2.22019,0.85783 0.21094,0.5625 1.04639,3.1375 1.14202,3.40843 0.0956,0.27093 0.67981,0.73817 1.09416,0.73817 0.41437,0 3.02796,-0.0959 3.26701,-0.17556 0.23906,-0.0797 0.76498,-0.38248 0.47812,-1.00402 -0.28687,-0.62154 -1.54588,-2.99613 -1.54588,-2.99613 z"
       id="path64"
       sodipodi:nodetypes="ccsssssc" /><path
       style="fill:#6f6f6f;fill-opacity:1;stroke:#000000;stroke-width:0.264999;stroke-linecap:square;stroke-linejoin:round;stroke-dasharray:none"
       d="m 170.94085,101.76668 c -0.20776,-0.43569 -0.94325,-0.40669 -1.29471,-0.36429 -0.93592,0.0852 -1.33734,-0.13568 -1.00842,0.67481 0.22599,0.55686 0.75366,1.81627 0.86551,2.0916 0.12861,0.31655 0.44953,0.71609 1.00732,0.70015 0.55779,-0.0159 1.23597,-0.0533 1.34753,-0.0851 0.11156,-0.0319 0.46328,-0.16758 0.2561,-0.566 -0.27591,-0.55569 -0.90633,-1.89119 -1.17333,-2.45112 z"
       id="path67"
       sodipodi:nodetypes="scssscss" /><path
       style="fill:#ffffff;fill-opacity:1;stroke:#000000;stroke-width:0.264999;stroke-linecap:square;stroke-linejoin:round;stroke-dasharray:none"
       d="m 171.28123,105.12353 -0.17544,-0.31145 c 0,0 -0.0351,-0.16705 -0.25864,-0.21921 -0.22356,-0.0522 -0.46542,-0.0543 -0.46542,-0.0543 l -1.32644,0.11152 0.31827,0.85356 1.98964,-0.10433 z"
       id="path70"
       clip-path="url(#clipPath71)"
       transform="translate(-0.01490374,-0.10432618)"
       sodipodi:nodetypes="ccsccccc" /><circle
       style="fill:#ffffff;fill-opacity:1;stroke:#000000;stroke-width:0.264999;stroke-linecap:square;stroke-linejoin:round;stroke-dasharray:none"
       id="path65"
       cx="169.65073"
       cy="103.06087"
       r="1.1573824"
       mask="url(#mask67)"
       transform="translate(-0.10432618,-0.11922992)" /></g><g
     inkscape:groupmode="layer"
     id="layer7"
     inkscape:label="midstay"><path
       style="display:inline;fill:url(#radialGradient53-5);stroke:#000000;stroke-width:0.264999;stroke-linecap:square;stroke-linejoin:round;stroke-dasharray:none"
       d="m 171.52456,107.56438 21.14036,56.86636 -1.42865,4.12552 c -1.82394,-4.46913 -21.17595,-59.23974 -21.17595,-59.23974 z"
       id="path52-0"
       sodipodi:nodetypes="ccccc"
       inkscape:label="midstay bottom" /><path
       style="fill:url(#radialGradient61);fill-opacity:1;stroke:#000000;stroke-width:0.264999;stroke-linecap:square;stroke-linejoin:round;stroke-dasharray:none"
       d="m 178.35335,131.42109 0.0684,-6.88922 1.96585,1.69404 -0.12432,5.56944 z"
       id="path53"
       inkscape:label="widget"
       sodipodi:nodetypes="ccccc" /><path
       style="fill:url(#radialGradient63);fill-opacity:1;stroke:#000000;stroke-width:0.264999;stroke-linecap:square;stroke-linejoin:round;stroke-dasharray:none"
       d="m 178.95727,131.33164 c 0.47482,0.36317 1.3268,0.0966 1.3268,0.0966 l 0.27034,0.9984 c 0,0 -0.53489,-0.18864 -1.1739,-0.18864 -0.63902,0 -0.62167,0.77971 -1.25081,-0.45612 -0.47075,-0.9247 -0.41694,-1.51265 0.17222,-1.49052 0.0797,0.003 -0.12203,0.44573 0.35277,0.80887 z"
       id="path54"
       sodipodi:nodetypes="sccsssss"
       inkscape:label="widget bottom" /><path
       style="display:inline;fill:url(#radialGradient53);stroke:#000000;stroke-width:0.264999;stroke-linecap:square;stroke-linejoin:round;stroke-dasharray:none"
       d="m 172.83713,106.27694 20.10027,45.27499 -3.20266,-1.44154 c -1.82394,-4.46913 -19.09482,-43.8793 -19.09482,-43.8793 0,0 1.49685,0.01 2.19721,0.0459 z"
       id="path52"
       sodipodi:nodetypes="cccccc"
       inkscape:label="midstay top" /><g
       inkscape:groupmode="layer"
       id="layer5-9"
       inkscape:label="midstay plate"
       transform="translate(167.64027,0.59016581)"><path
         style="fill:url(#radialGradient49-1);stroke:#000000;stroke-width:0.264999;stroke-linecap:square;stroke-linejoin:round;stroke-dasharray:none"
         d="m 24.216139,168.02278 1.522993,-0.66225 c 0,0 0.448161,-1.19247 -0.02948,-2.3388 -0.477634,-1.14632 -0.683991,-1.25725 -0.683991,-1.25725 0,0 -1.293838,-0.11883 -2.273966,-0.75918 -1.193113,-0.77944 -2.673545,-2.81805 -2.745803,-3.43224 -0.07226,-0.6142 -1.020112,2.57385 -1.020112,2.57385 l 2.041288,4.4258 z"
         id="path47-6"
         inkscape:label="bottom weld"
         sodipodi:nodetypes="ccscssccc" /><path
         style="fill:url(#radialGradient47-1);stroke:#000000;stroke-width:0.264999;stroke-linecap:square;stroke-linejoin:round;stroke-dasharray:none"
         d="m 20.263935,155.81927 c 1.005897,-1.88587 1.60453,-0.69586 4.937831,-2.60724 0,0 0.859206,-0.37232 0.746023,-2.09314 -0.08742,-1.32908 -1.522025,-2.15393 -1.522025,-2.15393 -2.851967,0.13944 -7.86618,0.19755 -7.86618,0.19755 0,0 -0.362155,0.23369 -0.711714,0.50585 z"
         id="path45-3"
         inkscape:label="top weld"
         sodipodi:nodetypes="ccscccc" /><path
         style="fill:url(#linearGradient59);fill-opacity:1;stroke:#000000;stroke-width:0.264583;stroke-linecap:square;stroke-linejoin:round"
         d="m 15.838083,149.65666 0.05305,18.39446 8.045033,-0.042 c 0,0 1.7093,0.022 1.667333,-1.81086 -0.0513,-2.24071 -1.440484,-1.68762 -2.670088,-2.5685 -1.679243,-1.203 -2.593648,-2.0723 -2.702276,-4.49711 -0.103989,-2.32127 0.710895,-4.059 2.323461,-4.96607 1.612566,-0.90707 2.965999,-0.90619 2.9441,-2.66499 -0.02375,-1.90765 -2.220145,-1.8848 -2.220145,-1.8848 0,0 -7.339686,-0.0609 -7.440471,0.0398 z"
         id="path1-1"
         sodipodi:nodetypes="cccsssssccc"
         inkscape:label="plate outline" /><g
         id="g45-5"
         inkscape:label="plate holes"><circle
           style="fill:#ffffff;fill-opacity:1;stroke:#000000;stroke-width:0.264583;stroke-linecap:square;stroke-linejoin:round"
           id="path2-8"
           cx="17.622046"
           cy="151.99663"
           r="0.80572766" /><circle
           style="fill:#ffffff;fill-opacity:1;stroke:#000000;stroke-width:0.264583;stroke-linecap:square;stroke-linejoin:round"
           id="path2-2-0"
           cx="17.610003"
           cy="154.72752"
           r="0.80572766" /><circle
           style="fill:#ffffff;fill-opacity:1;stroke:#000000;stroke-width:0.264583;stroke-linecap:square;stroke-linejoin:round"
           id="path2-2-9-9"
           cx="17.736725"
           cy="163.6279"
           r="0.80572766" /><circle
           style="fill:#ffffff;fill-opacity:1;stroke:#000000;stroke-width:0.264583;stroke-linecap:square;stroke-linejoin:round"
           id="path2-2-99-2"
           cx="17.736725"
           cy="166.15193"
           r="0.80572766" /></g><g
         id="g51-4"
         inkscape:label="plate hole depths"><path
           style="fill:#a7a7a7;fill-opacity:1;stroke:#000000;stroke-width:0.264999;stroke-linecap:square;stroke-linejoin:round;stroke-dasharray:none"
           d="m 17.364976,151.23941 c 0,0 -0.267928,0.6897 -0.06004,0.99112 0.256684,0.37216 0.770535,0.40112 0.770535,0.40112 0,0 -0.684527,0.26263 -0.989449,-0.0422 -0.304922,-0.30493 -0.319741,-0.57308 -0.195465,-0.86374 0.111414,-0.26058 0.281365,-0.4041 0.281365,-0.4041 z"
           id="path51-3"
           sodipodi:nodetypes="csccscc" /><path
           style="fill:#a7a7a7;fill-opacity:1;stroke:#000000;stroke-width:0.264999;stroke-linecap:square;stroke-linejoin:round;stroke-dasharray:none"
           d="m 17.361697,153.99194 c 0,0 -0.267928,0.6897 -0.06004,0.99112 0.256684,0.37216 0.770535,0.40112 0.770535,0.40112 0,0 -0.684527,0.26263 -0.989449,-0.0422 -0.304922,-0.30493 -0.319741,-0.57308 -0.195465,-0.86374 0.111414,-0.26058 0.281365,-0.4041 0.281365,-0.4041 z"
           id="path51-7-3"
           sodipodi:nodetypes="csccscc" /><path
           style="fill:#a7a7a7;fill-opacity:1;stroke:#000000;stroke-width:0.264999;stroke-linecap:square;stroke-linejoin:round;stroke-dasharray:none"
           d="m 17.457058,162.88986 c 0,0 -0.267928,0.6897 -0.06004,0.99112 0.256684,0.37216 0.770535,0.40112 0.770535,0.40112 0,0 -0.684527,0.26263 -0.989449,-0.0422 -0.304922,-0.30493 -0.319741,-0.57308 -0.195465,-0.86374 0.111414,-0.26058 0.281365,-0.4041 0.281365,-0.4041 z"
           id="path51-7-7-9"
           sodipodi:nodetypes="csccscc" /><path
           style="fill:#a7a7a7;fill-opacity:1;stroke:#000000;stroke-width:0.264999;stroke-linecap:square;stroke-linejoin:round;stroke-dasharray:none"
           d="m 17.474173,165.41464 c 0,0 -0.267928,0.6897 -0.06004,0.99112 0.256684,0.37216 0.770535,0.40112 0.770535,0.40112 0,0 -0.684527,0.26263 -0.989449,-0.0422 -0.304922,-0.30493 -0.319741,-0.57308 -0.195465,-0.86374 0.111414,-0.26058 0.281365,-0.4041 0.281365,-0.4041 z"
           id="path51-7-7-6-0"
           sodipodi:nodetypes="csccscc" /></g></g></g><g
     inkscape:groupmode="layer"
     id="layer3"
     inkscape:label="frontstay"><rect
       style="fill:url(#radialGradient41);fill-opacity:1;stroke:#000000;stroke-width:0.265;stroke-linecap:square;stroke-linejoin:round;stroke-dasharray:none"
       id="rect39"
       width="2.4150395"
       height="4.3162036"
       x="118.85579"
       y="129.07147"
       transform="rotate(-4.7223398)"
       inkscape:transform-center-y="-0.069169352"
       inkscape:transform-center-x="-0.0073705403"
       inkscape:label="right widget body" /><rect
       style="fill:url(#radialGradient39);fill-opacity:1;stroke:#000000;stroke-width:0.233868;stroke-linecap:square;stroke-linejoin:round"
       id="rect21"
       width="2.8485243"
       height="7.1347041"
       x="58.62719"
       y="145.4119"
       ry="0"
       transform="matrix(0.99029761,-0.1389628,0.13257257,0.9911733,0,0)"
       inkscape:transform-center-x="-6.1702919"
       inkscape:transform-center-y="-1.4893296"
       inkscape:label="left widget body" /><path
       style="fill:url(#linearGradient23);fill-opacity:1;stroke:#000000;stroke-width:0.265;stroke-linecap:square;stroke-linejoin:round;stroke-dasharray:none"
       d="m 23.40047,164.41032 1.278944,3.45357 144.327876,-58.87847 0.003,-2.29926 z"
       id="path8"
       inkscape:label="bottom frontstay"
       sodipodi:nodetypes="ccccc" /><path
       style="fill:url(#radialGradient33);fill-opacity:1;stroke:#000000;stroke-width:0.264583;stroke-linecap:square;stroke-linejoin:round"
       d="m 77.507206,137.30829 c 0,0 0.844287,-0.0723 1.344447,-0.18653 0.500158,-0.11432 1.433609,-0.61777 1.433609,-0.61777 l 0.298493,-0.92549 c 0,0 -0.892334,0.42845 -1.876355,0.68697 -0.954098,0.26746 -1.930402,0.5706 -1.930402,0.5706 z"
       id="path26"
       sodipodi:nodetypes="ccccccc"
       inkscape:label="left widget top weld" /><path
       style="fill:url(#radialGradient45);fill-opacity:1;stroke:#000000;stroke-width:0.264999;stroke-linecap:square;stroke-linejoin:round;stroke-dasharray:none"
       d="m 128.63948,119.98417 0.49768,0.25966 c 0,0 0.5085,0.0541 1.17929,-0.0974 0.67078,-0.15146 1.20092,-0.58423 1.20092,-0.58423 l 0.67079,-0.69242 c 0,0 -1.37403,0.53013 -2.034,0.69242 -0.65997,0.16229 -1.51468,0.42194 -1.51468,0.42194 z"
       id="path43"
       inkscape:label="right widget top weld" /><path
       style="fill:url(#linearGradient19);fill-opacity:1;stroke:#000000;stroke-width:0.264583;stroke-linecap:square;stroke-linejoin:round"
       d="m 22.846946,150.16181 145.100004,-45.07471 0.73466,2.00516 c 0,0 -147.554688,47.65028 -147.826531,47.92212 -0.271841,0.27184 1.991867,-4.85257 1.991867,-4.85257 z"
       id="path7"
       sodipodi:nodetypes="cccsc"
       inkscape:label="top frontstay" /><path
       style="fill:url(#radialGradient32);fill-opacity:1;stroke:#000000;stroke-width:0.264583;stroke-linecap:square;stroke-linejoin:round"
       d="m 78.142509,142.10374 -0.357002,0.92391 c 0,0 1.259379,0.31899 2.294123,-0.0259 1.034743,-0.34491 1.729584,-1.50378 1.729584,-1.50378 l -0.831334,-0.35198 c 0,0 -0.313959,0.70575 -1.164748,0.93569 -0.850789,0.22995 -1.670623,0.0118 -1.670623,0.0118 z"
       id="path25"
       sodipodi:nodetypes="ccsccscc"
       inkscape:label="left widget bottom weld" /><path
       style="fill:url(#radialGradient43);fill-opacity:1;stroke:#000000;stroke-width:0.264583;stroke-linecap:square;stroke-linejoin:round"
       d="m 129.30274,121.9116 c 0,0 0.77752,0.12178 1.25527,-0.0375 0.47776,-0.15925 1.11476,-0.84309 1.11476,-0.84309 l 0.64638,0.26229 c 0,0 -0.72132,1.07729 -1.50821,1.31148 -0.78689,0.2342 -1.99532,0.10305 -1.99532,0.10305 z"
       id="path41"
       inkscape:label="right widget bottom weld" /><g
       inkscape:groupmode="layer"
       id="layer5"
       inkscape:label="left plate"><path
         style="fill:url(#radialGradient49);stroke:#000000;stroke-width:0.264999;stroke-linecap:square;stroke-linejoin:round;stroke-dasharray:none"
         d="m 24.216139,168.02278 1.791436,-0.66225 c 0,0 0.895566,-1.07316 0.417929,-2.21949 -0.477634,-1.14632 -1.399839,-1.37656 -1.399839,-1.37656 0,0 -1.114876,-0.089 -2.095004,-0.72935 -1.193113,-0.77944 -2.673545,-2.81805 -2.745803,-3.43224 -0.07226,-0.6142 -1.199074,2.54402 -1.199074,2.54402 l 2.041288,4.4258 z"
         id="path47"
         inkscape:label="bottom weld"
         sodipodi:nodetypes="ccscssccc" /><path
         style="fill:url(#radialGradient47);stroke:#000000;stroke-width:0.264999;stroke-linecap:square;stroke-linejoin:round;stroke-dasharray:none"
         d="m 20.194636,155.68375 c 1.230343,-1.33495 1.71051,-1.04206 5.227449,-2.20811 0,0 1.048677,-0.92108 0.90639,-2.39136 -0.128301,-1.32576 -0.449181,-1.87707 -0.449181,-1.87707 -2.851967,0.13944 -9.31971,-0.0447 -9.31971,-0.0447 0,0 -0.362155,0.23369 -0.711714,0.50585 z"
         id="path45"
         inkscape:label="top weld"
         sodipodi:nodetypes="ccscccc" /><path
         style="fill:url(#linearGradient51);fill-opacity:1;stroke:#000000;stroke-width:0.264583;stroke-linecap:square;stroke-linejoin:round"
         d="m 15.838083,149.65666 0.05305,18.39446 8.045033,-0.042 c 0,0 1.7093,0.022 1.667333,-1.81086 -0.0513,-2.24071 -1.440484,-1.68762 -2.670088,-2.5685 -1.679243,-1.203 -2.593648,-2.0723 -2.702276,-4.49711 -0.103989,-2.32127 0.710895,-4.059 2.323461,-4.96607 1.612566,-0.90707 2.965999,-0.90619 2.9441,-2.66499 -0.02375,-1.90765 -2.220145,-1.8848 -2.220145,-1.8848 0,0 -7.339686,-0.0609 -7.440471,0.0398 z"
         id="path1"
         sodipodi:nodetypes="cccsssssccc"
         inkscape:label="plate outline" /><g
         id="g45"
         inkscape:label="plate holes"><circle
           style="fill:#ffffff;fill-opacity:1;stroke:#000000;stroke-width:0.264583;stroke-linecap:square;stroke-linejoin:round"
           id="path2"
           cx="17.622046"
           cy="151.99663"
           r="0.80572766" /><circle
           style="fill:#ffffff;fill-opacity:1;stroke:#000000;stroke-width:0.264583;stroke-linecap:square;stroke-linejoin:round"
           id="path2-2"
           cx="17.610003"
           cy="154.72752"
           r="0.80572766" /><circle
           style="fill:#ffffff;fill-opacity:1;stroke:#000000;stroke-width:0.264583;stroke-linecap:square;stroke-linejoin:round"
           id="path2-2-9"
           cx="17.736725"
           cy="163.6279"
           r="0.80572766" /><circle
           style="fill:#ffffff;fill-opacity:1;stroke:#000000;stroke-width:0.264583;stroke-linecap:square;stroke-linejoin:round"
           id="path2-2-99"
           cx="17.736725"
           cy="166.15193"
           r="0.80572766" /></g><g
         id="g51"
         inkscape:label="plate hole depths"><path
           style="fill:#a7a7a7;fill-opacity:1;stroke:#000000;stroke-width:0.264999;stroke-linecap:square;stroke-linejoin:round;stroke-dasharray:none"
           d="m 17.364976,151.23941 c 0,0 -0.267928,0.6897 -0.06004,0.99112 0.256684,0.37216 0.770535,0.40112 0.770535,0.40112 0,0 -0.684527,0.26263 -0.989449,-0.0422 -0.304922,-0.30493 -0.319741,-0.57308 -0.195465,-0.86374 0.111414,-0.26058 0.281365,-0.4041 0.281365,-0.4041 z"
           id="path51"
           sodipodi:nodetypes="csccscc" /><path
           style="fill:#a7a7a7;fill-opacity:1;stroke:#000000;stroke-width:0.264999;stroke-linecap:square;stroke-linejoin:round;stroke-dasharray:none"
           d="m 17.361697,153.99194 c 0,0 -0.267928,0.6897 -0.06004,0.99112 0.256684,0.37216 0.770535,0.40112 0.770535,0.40112 0,0 -0.684527,0.26263 -0.989449,-0.0422 -0.304922,-0.30493 -0.319741,-0.57308 -0.195465,-0.86374 0.111414,-0.26058 0.281365,-0.4041 0.281365,-0.4041 z"
           id="path51-7"
           sodipodi:nodetypes="csccscc" /><path
           style="fill:#a7a7a7;fill-opacity:1;stroke:#000000;stroke-width:0.264999;stroke-linecap:square;stroke-linejoin:round;stroke-dasharray:none"
           d="m 17.457058,162.88986 c 0,0 -0.267928,0.6897 -0.06004,0.99112 0.256684,0.37216 0.770535,0.40112 0.770535,0.40112 0,0 -0.684527,0.26263 -0.989449,-0.0422 -0.304922,-0.30493 -0.319741,-0.57308 -0.195465,-0.86374 0.111414,-0.26058 0.281365,-0.4041 0.281365,-0.4041 z"
           id="path51-7-7"
           sodipodi:nodetypes="csccscc" /><path
           style="fill:#a7a7a7;fill-opacity:1;stroke:#000000;stroke-width:0.264999;stroke-linecap:square;stroke-linejoin:round;stroke-dasharray:none"
           d="m 17.474173,165.41464 c 0,0 -0.267928,0.6897 -0.06004,0.99112 0.256684,0.37216 0.770535,0.40112 0.770535,0.40112 0,0 -0.684527,0.26263 -0.989449,-0.0422 -0.304922,-0.30493 -0.319741,-0.57308 -0.195465,-0.86374 0.111414,-0.26058 0.281365,-0.4041 0.281365,-0.4041 z"
           id="path51-7-7-6"
           sodipodi:nodetypes="csccscc" /></g></g></g><path
     style="fill:#989898;fill-opacity:1;stroke:#000000;stroke-width:0.264999;stroke-linecap:square;stroke-linejoin:round;stroke-dasharray:none"
     d="m 171.25435,107.59263 c 0,0 -0.1478,-0.57999 0.55724,-0.63685 0.70507,-0.0569 1.53524,0.34117 1.53524,0.34117 l 0.0796,-0.68233 -0.0228,-0.6141 c 0,0 -0.65424,0.0229 -1.67172,-0.0227 -1.1787,-0.0528 -1.65322,0.61272 -1.65151,1.00108 -0.0228,0.36391 -0.30589,2.37541 -0.30589,2.37541 l 0.47901,0.62653 c 0,0 -0.40891,-0.69126 0.26205,-1.22575 0.67096,-0.5345 1.19177,0.0148 1.19177,0.0148 z"
     id="path74"
     sodipodi:nodetypes="cscccscccscc"
     inkscape:label="tip weld right" /><path
     style="fill:#989898;fill-opacity:1;stroke:#000000;stroke-width:0.264999;stroke-linecap:square;stroke-linejoin:round;stroke-dasharray:none"
     d="m 169.23406,109.20565 -1.66941,0.41232 c 0,0 0.40226,-0.62351 0.33187,-1.18669 -0.0704,-0.56317 -1.10624,-0.71403 -1.10624,-0.71403 l 0.57324,-0.21119 c 0,0 0.3922,-0.50283 0.20113,-1.16657 -0.19108,-0.66374 -0.76431,-0.87493 -0.76431,-0.87493 l 0.96544,-1.27721 0.33187,0.89505 c 0,0 0.0905,0.6034 0.47267,0.77437 0.38215,0.17096 0.77436,0.12068 0.88498,0.32181 0.11063,0.20114 0.0905,2.56446 -0.0101,2.72537 -0.10057,0.1609 -0.21119,0.3017 -0.21119,0.3017 z"
     id="path75"
     sodipodi:nodetypes="ccsccscccssscc"
     inkscape:label="tip weld left" /></svg>
