<?xml version="1.0" encoding="UTF-8" standalone="no"?>
<!--
I, the author of this work, hereby publish it under the following license:
Permission is granted to copy, distribute and/or modify this document under the 
terms of the GNU Free Documentation License, Version 1.2 or any later version 
published by the Free Software Foundation; with no Invariant Sections, no 
Front-Cover Texts, and no Back-Cover Texts. A copy of the license is included 
in the section entitled "GNU Free Documentation License".

This file is based on the template originaly found here: 
http://commons.wikimedia.org/wiki/Image:Rowing_Blade_Template.svg
For help on editing this file, please see that url.

Template by: Gary van der Merwe 2006
Derived work by:                                   <- Put your name here!
-->

<svg
   width="590.58203"
   height="230"
   id="svg4726"
   version="1.1"
   xml:space="preserve"
   xmlns:xlink="http://www.w3.org/1999/xlink"
   xmlns="http://www.w3.org/2000/svg"
   xmlns:svg="http://www.w3.org/2000/svg"
   xmlns:rdf="http://www.w3.org/1999/02/22-rdf-syntax-ns#"
   xmlns:cc="http://creativecommons.org/ns#"
   xmlns:dc="http://purl.org/dc/elements/1.1/"><metadata
     id="metadata4771"><rdf:RDF><cc:Work
         rdf:about=""><dc:format>image/svg+xml</dc:format><dc:type
           rdf:resource="http://purl.org/dc/dcmitype/StillImage" /></cc:Work></rdf:RDF></metadata><defs
     id="defs4728"><linearGradient
       y2="15"
       y1="-15"
       x2="0"
       gradientUnits="userSpaceOnUse"
       id="linearGradient20280"><stop
         id="stop20282"
         style="stop-color:#ffffff;stop-opacity:1;"
         offset="0" /><stop
         id="stop20284"
         style="stop-color:#ffffff;stop-opacity:1;"
         offset="0.44999999" /><stop
         id="stop20286"
         style="stop-color:#d9d9d9;stop-opacity:1;"
         offset="0.55000001" /><stop
         id="stop20288"
         style="stop-color:#ffffff;stop-opacity:1;"
         offset="1" /></linearGradient><radialGradient
       spreadMethod="pad"
       id="radialGradient20274"
       cx="0"
       cy="0"
       r="77.459663"
       gradientTransform="scale(2.5819889,0.38729833)"
       fx="0"
       fy="0"
       gradientUnits="userSpaceOnUse"><stop
         offset="0.5"
         style="stop-color:#ffffff;stop-opacity:0;"
         id="stop20276" /><stop
         offset="0.94999999"
         style="stop-color:#ffffff;stop-opacity:1;"
         id="stop20278" /></radialGradient><linearGradient
       id="loomGradient"
       gradientUnits="userSpaceOnUse"
       x2="0"
       y1="-14"
       y2="14"><stop
         offset="0%"
         style="stop-color:black;"
         id="stop4731" /><stop
         offset="25%"
         style="stop-color:lightgray;"
         id="stop4733" /><stop
         offset="60%"
         style="stop-color:black;"
         id="stop4735" /></linearGradient><!-- Ensure these colors match up with the background of the spoon--><path
       id="spoonPath"
       d="m 105,75 c 0,1 1,2 2,2 32,12 63,72 70,104 54,18 212,20 278,20 3,0 6,-3 6,-6 L 450,27 c 0,-3 -3,-6 -6,-6 L 113,43 c -1,0 -2,1 -2,2 z" /><linearGradient
       xlink:href="#loomGradient"
       id="linearGradient16448"
       gradientUnits="userSpaceOnUse"
       gradientTransform="translate(206.46682,26.829847)"
       y1="-14"
       x2="0"
       y2="14" /><radialGradient
       xlink:href="#radialGradient20274"
       id="radialGradient20215"
       gradientUnits="userSpaceOnUse"
       gradientTransform="matrix(2.5819889,0,0,0.38729833,116.99976,40.999762)"
       cx="0"
       cy="0"
       fx="0"
       fy="0"
       r="77.459663" /><linearGradient
       xlink:href="#linearGradient20280"
       id="linearGradient20218"
       gradientUnits="userSpaceOnUse"
       gradientTransform="translate(116.99976,40.999762)"
       y1="-15"
       x2="0"
       y2="15" /><clipPath
       clipPathUnits="userSpaceOnUse"
       id="clipPath4"><use
         style="fill:#ffffff;fill-opacity:0;stroke:#000000;stroke-width:1.00157;stroke-dasharray:none"
         id="use5"
         strokewidth="1"
         xlink:href="#spoonPath"
         x="0"
         y="0"
         width="500"
         height="230" /></clipPath></defs><!-- loom of the blade --><!-- Any thing in here will be cliped to the shape of the spoon --><rect
     style="fill:none"
     id="background"
     height="230"
     width="500"
     y="0"
     x="90.582031" /><rect
     style="fill:url(#linearGradient16448)"
     transform="rotate(9.0000003)"
     x="6.4668159"
     y="12.829848"
     height="28"
     width="200"
     id="shaft" /><g
     id="g47816"
     clip-path="url(#clipPath4)"
     transform="translate(90.582031)"><use
       style="fill:#ffffff;fill-opacity:1;stroke:#000000;stroke-opacity:1"
       id="spoon_face"
       strokewidth="1"
       xlink:href="#spoonPath"
       x="0"
       y="0"
       width="500"
       height="230" /><g
       id="g158"
       transform="matrix(-0.33285181,0.02327526,0.02327526,0.33285181,430.37252,19.099934)"><g
         id="g132"><path
           id="path129"
           fill="#e1e1dc"
           stroke="#8e8e8e"
           stroke-width="1.7"
           d="m 123.05184,195.69086 c -7.15459,-11.86585 -24.604841,-32.64377 -33.473692,-38.04843 -0.832909,-13.46515 -5.302658,-19.55549 -8.99987,-21.8556 -2.526169,-1.3226 -2.062294,-5.06558 -0.541832,-13.40554 0.74118,-4.06565 -0.538567,-6.32279 -1.063256,-8.28824 3.022065,-4.75305 6.538155,-5.4223 9.260681,-13.51257 2.839035,-8.436651 -4.383499,-12.460546 -6.067558,-8.901311 -1.864975,3.941162 -3.404487,10.863491 -5.694504,10.909761 -0.555503,-2.37818 1.10257,-6.59897 1.753823,-10.699709 0.768715,-4.840515 -3.686814,-7.177429 -5.991585,-7.041565 -2.304863,0.135803 -5.003304,2.376282 -5.110809,4.30304 -0.23124,4.139831 1.905639,7.177337 0.718292,11.561344 -1.911751,-1.064579 -2.387123,-4.880894 -3.565437,-7.35062 -1.68599,-3.533783 -5.805489,-2.546662 -7.854386,0.323211 -1.895332,2.654938 -2.371155,7.128659 -0.522045,9.878019 1.591499,2.3664 6.06691,3.90961 9.663349,11.96436 1.410225,3.15826 0.341042,7.76459 1.137932,11.25516 0.699333,3.06335 3.055984,8.07791 3.055984,8.07791 -2.168533,0.80908 -3.526779,-2.07755 -5.618446,-3.54175 -5.451393,-3.8161 -8.906681,8.70791 -3.596908,11.86703 2.727985,1.62311 7.985961,-0.17044 10.323661,3.03296 2.710457,3.71427 1.969201,4.11518 1.769669,7.39939 -0.483742,7.96337 -7.935349,10.91623 -4.7798,21.95047 2.796913,-4.58622 3.932663,-6.73093 5.315078,-7.17023 0.75029,4.27453 -2.714943,10.05466 -0.422386,16.21402 1.873077,-4.91715 3.959282,-6.59433 5.806938,-8.50577 1.696457,5.44107 -2.785682,9.00894 0.456398,18.51965 1.494477,-3.91293 2.875054,-7.25134 6.359795,-9.08459 1.997208,7.17087 -4.631332,9.14758 -1.423897,17.62683 1.264687,-3.64004 3.912415,-5.66864 7.106178,-6.52554 1.09681,7.13311 5.42112,11.82382 8.17936,13.69446 z"
           style="fill:#d30707;fill-opacity:1;stroke:#d30707;stroke-opacity:1" /><path
           id="path131"
           fill="#d30707"
           stroke="#820000"
           stroke-width="1.7"
           d="m 89.676094,92.810364 c 0.556961,-2.89856 -0.622177,-7.877075 -1.804161,-10.175293 -0.637672,4.387573 -2.273033,5.680542 -3.689369,7.935486 -1.206223,1.920196 0.12931,3.49234 0.987846,4.189453 1.365349,1.108764 3.119621,0.481689 3.821312,-0.333802 0.334755,-0.389068 0.555893,-0.94696 0.684372,-1.615844 z M 76.073502,86.246399 c 0.692207,-2.852539 -2.013596,-8.305176 -3.917885,-10.342224 0.379257,4.436218 -0.896919,6.275268 -1.744416,8.955993 -0.721656,2.282898 0.913514,3.29712 1.892876,3.648438 1.557671,0.559021 3.096192,-0.68811 3.584053,-1.727234 0.07759,-0.165344 0.139237,-0.344788 0.185372,-0.534973 z m -13.79398,49.227321 c 0.228062,-1.26641 0.314964,-3.58432 -1.599346,-3.86947 -2.247959,-0.33496 -4.122868,0.21386 -6.988632,-2.33792 0.519046,3.31881 3.27145,9.52267 5.683193,9.39843 0.947807,-0.0488 2.542129,-1.17672 2.904785,-3.19104 z M 61.802799,93.893433 c 0.03137,-0.172394 0.04851,-0.336853 0.05371,-0.48819 0.101124,-3.080719 -4.751712,-6.606781 -7.348735,-7.275055 1.992816,3.664978 1.561775,6.06076 1.820381,8.932983 0.220222,2.445893 2.035125,2.336975 3.026794,2.04773 1.380222,-0.402649 2.230454,-2.010559 2.447937,-3.217468 z"
           style="stroke:#d30707;stroke-opacity:1" /></g><g
         id="g137"><path
           id="path133"
           fill="#e1e1dc"
           stroke="#8e8e8e"
           stroke-width="1.7"
           d="m 134.18504,255.42261 c 0,0 -1.8425,10.59558 -10.69698,15.52881 -6.04604,3.36844 -16.20934,3.86306 -22.60952,5.9009 -7.155403,2.27833 -12.505188,9.05582 -16.467651,8.75443 -3.485009,-0.19757 -6.914948,0.23694 -10.044472,4.11948 3.021667,0.29412 5.281135,2.57394 7.209228,5.71722 -3.515724,1.20358 -7.994163,3.37399 -9.504875,10.06354 2.943932,-1.13669 5.678963,-1.72913 7.427719,0.24801 -4.433319,5.59275 -4.544921,9.47843 -4.455795,12.42548 0.740807,-1.24228 2.550018,-3.20077 6.283287,-1.67023 0.173889,3.37369 0.318749,6.78452 3.020889,6.92847 0,0 -1.496925,10.98328 0.243111,18.0134 2.290703,9.25479 9.272705,22.0289 7.536484,25.46725 -4.775284,1.52533 -9.108704,-3.57763 -15.060021,-6.15405 -9.662399,-4.18298 -14.827308,-2.74951 -22.72739,-1.08343 -2.693634,0.56805 -3.836708,-2.9289 -5.969059,-11.04725 -1.039509,-3.95761 -3.05616,-5.02072 -4.310272,-6.34189 0.619408,-6.07202 3.337418,-8.99932 2.330742,-17.71109 -1.049774,-9.08477 -8.850697,-7.66699 -8.821831,-3.50824 0.03189,4.60517 1.565624,11.52958 -0.36462,13.10447 -1.449917,-1.6518 -1.772755,-6.3562 -2.903252,-10.28336 -1.334461,-4.63559 -6.087068,-3.63717 -7.993089,-1.9761 -1.905987,1.66095 -3.282315,5.37738 -2.582232,7.08957 1.504114,3.67877 4.570955,4.83135 5.361538,9.3591 -2.064665,0.37573 -4.037302,-2.55384 -6.054979,-3.86597 -2.886923,-1.87741 -5.987748,1.72498 -6.552626,5.54162 -0.52256,3.53074 0.910524,7.65769 3.614063,8.75806 2.32695,0.94708 6.770409,-0.7402 13.140923,3.70435 2.497925,1.7427 3.48051,6.38037 5.592846,8.81717 1.853889,2.13852 5.920147,4.82666 5.920147,4.82666 -1.513432,2.14276 -3.855519,0.59637 -6.237542,0.75262 -6.208007,0.40711 -4.003391,13.3841 1.814125,12.51276 2.988888,-0.4476 3.904198,-4.10871 9.937851,-4.52265 3.750348,0.89234 6.431401,2.60089 8.453736,4.64435 5.411987,5.4686 4.769882,11.97211 10.761101,14.07508 -1.387841,-5.53681 -2.133996,-7.94318 -1.638535,-9.64939 3.186493,1.61856 4.969643,8.53284 10.244186,9.58695 -2.122741,-4.74869 -2.030143,-7.89533 -2.224044,-10.92243 4.474151,1.27805 4.252945,8.01828 12.22953,9.96033 -1.68692,-3.78302 -3.067162,-7.1214 -2.287384,-11.83182 5.761879,1.93631 3.303139,10.04447 10.5933,11.44138 -1.517639,-3.13373 -1.701477,-6.6427 -1.00193,-10.08695 0,0 3.365417,3.94162 5.486793,4.68698 1.48666,0.52234 3.10503,-0.6824 4.61918,-0.31057 2.2788,0.5596 4.86224,3.72689 4.86224,3.72689 0,0 2.27122,-2.36517 0.97243,-7.45379 -1.25832,-4.93015 -3.55847,-9.15314 -4.1329,-14.2865 -1.34993,-12.06348 5.03428,-27.34503 3.8898,-39.44315 -0.93515,-9.88568 -6.56405,-15.52884 -6.56405,-15.52884 0,0 0.3258,-2.35681 0.97248,-3.10571 3.8761,-4.48895 4.03691,1.03259 11.42628,-4.34805 3.7894,-2.75931 10.41375,-8.45285 14.34368,-10.87021 12.74044,-7.83658 15.07303,-16.46048 15.07303,-16.46048 z"
           style="fill:#d30707;fill-opacity:1;stroke:#d30707;stroke-opacity:1" /><path
           id="path136"
           fill="#d30707"
           stroke="#820000"
           stroke-width="1.7"
           d="m 44.425655,317.00079 c -0.716804,-2.84063 -3.765964,-6.28763 -5.716247,-7.45132 1.259819,4.16229 0.399086,6.35934 0.119945,9.22845 -0.237716,2.44318 1.545018,2.88581 2.562123,2.9036 1.617809,0.0283 2.853344,-1.68186 3.115543,-2.84644 0.125092,-0.55563 0.08407,-1.17874 -0.08136,-1.83429 z m -14.275163,3.53372 c -0.582825,-2.89215 -5.12621,-5.71899 -7.583988,-6.17605 2.145456,3.52167 1.814826,5.94269 2.19486,8.79275 0.323612,2.42707 2.132183,2.19391 3.110123,1.83637 1.555532,-0.56866 2.352667,-2.66174 2.340974,-3.87344 -0.0018,-0.19272 -0.02311,-0.38682 -0.06197,-0.57963 z m 8.484316,51.15055 c -0.326165,-1.23084 -1.204598,-3.26206 -2.951146,-2.22125 -2.050964,1.22222 -3.42139,2.94653 -6.90909,2.69604 1.805376,2.47687 6.6971,5.91193 8.698859,4.18909 0.786712,-0.6771 1.680301,-2.70612 1.161377,-4.66388 z M 21.145393,336.61233 c -0.04426,-0.16763 -0.09695,-0.3193 -0.154934,-0.45147 -1.179721,-2.69007 -6.759056,-2.43747 -9.244241,-1.26495 3.202161,1.78335 3.819562,4.11166 5.219736,6.38302 1.192335,1.93427 2.692474,0.6246 3.4177,-0.28659 1.009388,-1.26813 1.07242,-3.20682 0.761718,-4.38001 z"
           style="fill:#d30707;fill-opacity:1;stroke:#d30707;stroke-opacity:1"
           transform="translate(8.8436332e-6)" /></g><g
         id="g144"><path
           id="path142"
           fill="none"
           stroke="#8e8e8e"
           stroke-width="1.7"
           d="m 224.95032,111.57443 c 0,0 6.2099,11.75287 7.04124,20.12979 0.48532,4.8916 -1.05876,10.68531 -2.21048,15.51682 -0.59115,2.48007 -0.76356,5.48712 -0.59234,8.5141 -4.45743,-7.39945 -10.084,-11.16532 -13.09885,-12.44504 -5.07289,-2.15326 -12.59132,-2.36728 -17.98528,0.79773 -8.05551,4.72665 -13.97596,11.73871 -15.56027,22.88089 -2.0822,14.64496 4.99317,20.52307 4.52292,29.58527 -0.48302,9.30801 -8.2784,18.1856 -7.96037,27.50518 0.51304,15.03052 8.04934,17.85962 8.04934,17.85962 0,0 -2.76161,-4.74255 0,-13.99023 3.13907,-10.51139 12.99109,-12.88077 15.00296,-28.97019 0.95301,-7.62072 -4.03369,-15.31378 -2.66551,-22.83059 2.05467,-11.28919 9.72354,-12.98722 13.41109,-12.51963 4.97168,0.63041 11.16696,5.44452 12.12869,16.73386 0.88593,10.39865 -1.41047,18.08612 -5.51347,28.37747 -4.1032,10.29132 -9.31035,20.81073 -11.01259,33.0763 -2.95711,21.30676 0.99232,38.31097 -1.19644,56.38961 -0.72504,5.9889 -2.57944,12.51932 -5.46689,16.95383 -2.88748,4.43439 -6.40215,7.12302 -12.44389,6.70059 -2.09684,-0.1466 -4.74575,-1.86026 -7.53865,-5.21512 -2.7929,-3.35488 -5.56513,-8.12323 -7.90491,-12.96325 -1.75079,-3.62177 -3.25841,-7.24616 -4.46016,-10.36313 -0.0933,-3.88876 -0.47426,-7.68475 -1.25037,-11.33792 -2.05429,-9.66992 -4.56048,-10.82578 -7.03244,-20.33487 -5.54484,-21.33063 -1.26249,-41.3093 -8.4097,-59.70545 -4.63398,-11.92755 -7.03241,-23.2369 -7.03241,-23.2369 l -32.24546,-4.33536 -4.47914,12.62588 c -3.68782,0.90735 -6.57,6.2006 -8.2711,12.29227 -10.296569,7.6069 -22.245277,18.35974 -26.829559,25.43814 -10.425602,-2.24853 -16.137699,1.80405 -18.78479,5.82456 -1.619495,2.80767 -4.349563,1.32125 -10.310787,-2.59452 -2.906071,-1.90887 -4.93098,-0.87201 -6.550937,-0.70077 -2.872235,-4.90225 -2.523808,-9.42331 -8.002642,-14.76752 -5.713465,-5.573 -10.527907,2.3956 -8.236086,5.34934 2.537849,3.27084 7.418129,6.86587 6.89526,9.71447 -1.940844,0.10886 -4.740124,-2.97488 -7.694796,-4.78079 -3.487568,-2.13177 -6.347764,2.82031 -6.80626,5.70902 -0.458399,2.88876 0.585611,6.77819 2.022184,7.38098 3.086618,1.29498 5.913436,-0.61389 8.952455,1.92535 -1.273893,2.10928 -4.288198,1.76987 -6.450258,2.62808 -3.093548,1.22791 -3.347239,6.57172 -1.667643,9.80957 1.553835,2.99521 4.834503,4.6742 7.372347,3.05298 2.184315,-1.39535 4.445862,-6.56485 11.437147,-9.05841 2.741287,-0.97769 5.978455,1.46958 8.822605,1.33267 2.496086,-0.12014 6.87629,-1.81729 6.87629,-1.81729 0.08591,2.884 -2.43618,3.86368 -4.057495,6.0986 -4.225277,5.82459 4.441944,13.15653 8.133953,7.34739 1.896896,-2.98456 1.816189,-9.93595 4.817737,-12.05182 3.480183,-2.45331 4.43993,-0.12851 6.890606,0.89602 6.558037,2.74173 6.70504,10.65561 14.657425,9.98343 -2.800461,-4.58276 -4.151306,-6.51169 -4.148033,-8.33151 3.42794,0.11179 6.971397,5.81317 12.206047,4.4733 -3.276756,-3.51868 -4.04126,-6.5123 -5.042328,-9.26718 4.544159,-0.77634 6.161011,5.6456 14.171333,3.94583 -2.606521,-2.805 -4.80442,-5.32859 -5.347267,-10.0929 5.930672,-0.72738 5.815964,7.96771 13.034752,6.05948 -2.45542,-2.4537 -3.35043,-6.229 -3.22294,-10.39484 1.07199,0.0715 2.10543,-0.0223 3.09162,-0.23858 2.30661,2.97613 5.39321,6.45846 9.6309,10.81048 6.84366,7.02826 21.34606,16.41748 24.45438,29.71381 3.48201,14.89471 -7.40754,19.34131 -8.75839,28.87515 -0.44118,3.11368 -0.83601,8.74158 -0.83601,8.74158 -3.78064,7.74869 -5.50776,13.60129 -5.9046,16.17288 -3.19713,1.7826 -6.12655,4.10111 -7.5985,9.34729 2.81442,-1.43539 5.62893,-0.66058 8.44326,1.07733 -2.74183,3.05796 -6.01465,7.52741 -5.06566,14.38349 2.25151,-2.67639 4.50222,-4.74674 6.75372,-3.95514 -2.05308,7.51501 -0.81402,11.06628 0.2816,13.66217 0.23709,-1.53198 1.18773,-4.30695 5.06721,-5.03247 0.41527,7.23932 2.053,13.60992 4.34337,19.51849 3.51885,9.07749 14.68689,21.15314 10.00878,29.37836 -5.99686,10.54391 -6.3741,15.72967 -7.35338,25.88177 -0.33394,3.46149 -3.28269,3.87436 -9.98097,4.19556 -3.26544,0.15662 -4.63289,2.32898 -5.979,3.49292 -4.38487,-2.47342 -5.81624,-6.6322 -12.64238,-7.85809 -7.11838,-1.27839 -8.25514,8.6838 -5.12393,9.82263 3.46715,1.26105 9.09963,1.33505 9.73732,4.1452 -1.6497,1.31055 -5.27423,0.3775 -8.54238,0.65424 -3.8579,0.32669 -4.44872,6.43442 -3.73954,9.23922 0.70926,2.80484 3.11251,5.54123 4.59587,5.16666 3.18718,-0.80475 4.91775,-4.23846 8.54102,-3.92905 -0.30075,2.63633 -3.05844,4.22562 -4.61329,6.32786 -2.22497,3.00793 -0.39419,7.82727 2.31253,9.5971 2.50374,1.63721 6.00589,1.04364 7.59548,-1.95895 1.3682,-2.58438 1.35643,-8.50394 6.49259,-15.05637 2.01394,-2.56924 5.77337,-2.46441 8.19961,-4.3652 2.12932,-1.66815 5.29619,-5.89353 5.29619,-5.89353 1.18179,2.45972 -0.63971,4.89472 -1.19493,7.8581 -1.44696,7.72302 8.91998,8.68396 9.90811,1.30841 0.50763,-3.78934 -1.98344,-5.94593 -0.59089,-13.45716 1.72894,-4.34423 3.7684,-7.14575 5.87394,-9.04724 5.63451,-5.08856 10.33753,-2.46637 13.60814,-9.21499 -4.54964,0.13766 -6.56799,0.3713 -7.7093,-0.71759 2.11502,-3.44815 7.81117,-3.68036 10.09184,-9.84684 -4.16524,1.26075 -6.50195,0.25916 -8.8299,-0.35788 2.223,-5.12231 7.22202,-2.94763 10.93235,-12.1748 -3.31707,0.9993 -6.21317,1.74679 -9.53015,-0.53867 3.0807,-6.51468 8.47427,-1.21002 11.58151,-9.74993 -8.44864,2.96185 -16.02382,-10.13373 -17.02953,-20.33668 -1.04043,-10.55548 2.77889,-22.81744 5.80541,-37.32968 0.97439,-4.67221 1.73245,-7.93683 2.12576,-15.65838 2.11555,3.91763 4.51526,7.73825 7.2527,11.02664 3.79709,4.56116 8.40006,8.32516 13.92925,8.71176 9.00193,0.62943 16.32516,-4.31457 20.79071,-11.34912 5.52844,-8.70865 14.92538,-14.93814 22.43953,-20.76355 5.04933,-3.97772 6.10301,-11.18326 6.10301,-11.18326 0,0 -4.74526,5.45191 -7.59404,7.15357 -4.04621,2.41671 -9.14434,3.09091 -13.20984,5.4537 -0.24712,0.14352 -0.48731,0.30951 -0.72817,0.4715 -0.0538,-4.37448 0.25902,-7.74033 1.25623,-10.61283 1.84053,-5.30145 6.03995,-12.00833 9.5099,-15.25582 3.55614,-3.32822 8.57849,-6.56995 12.14904,-9.87296 4.8048,-4.44467 5.43771,-11.72934 5.43771,-11.72934 0,0 -4.41405,5.88587 -7.15642,7.85254 -3.89484,2.79303 -8.94089,3.94647 -12.85811,6.68753 -2.81726,1.97128 -5.12785,5.25998 -6.77717,8.15628 -0.0757,-4.20291 -0.67829,-7.68332 0.19987,-11.53735 1.26369,-5.54596 5.40552,-13.62979 9.03415,-17.20356 3.49132,-3.4385 8.45187,-6.83566 11.95802,-10.24945 4.71816,-4.59369 5.21012,-11.89892 5.21012,-11.89892 0,0 -4.30089,6.02432 -7.00469,8.07617 -3.84004,2.91412 -8.86184,4.22543 -12.72545,7.08832 -3.13597,2.32364 -5.57264,6.27685 -7.17686,9.44983 0.11133,-3.13681 0.34453,-6.27448 0.78497,-9.44803 1.22483,-8.82511 6.32198,-18.21289 10.0642,-29.46036 3.84849,-11.56674 9.85295,-30.28009 10.13437,-40.25592 0.21054,-7.46542 -2.53157,-13.81049 -2.78534,-19.80365 -0.32007,-7.56183 3.12144,-15.19254 1.86021,-22.59201 -2.64835,-15.5383 -12.81152,-20.36838 -12.81152,-20.36838 z"
           style="fill:#d30707;fill-opacity:1;stroke:#d30707;stroke-opacity:1" /><path
           id="path143"
           fill="#d30707"
           stroke="#820000"
           stroke-width="1.7"
           d="m 105.62375,430.81308 c -2.3355,0.0765 -5.784875,2.84012 -7.209306,4.9017 3.481266,-0.36883 4.888106,1.30634 6.963736,2.45844 1.76758,0.98114 2.6034,-1.07871 2.90387,-2.32016 0.47792,-1.97473 -0.45739,-3.97168 -1.25784,-4.6218 -0.38198,-0.31021 -0.86145,-0.43582 -1.40046,-0.41818 z m -1.37667,18.49222 c -2.33641,-0.10224 -5.741915,4.66772 -6.779078,7.55072 3.250398,-1.63507 4.975018,-0.54633 7.222608,-0.20743 1.91386,0.28867 2.24935,-1.99362 2.25701,-3.29306 0.0119,-2.0669 -1.33455,-3.63477 -2.24788,-3.96252 -0.14518,-0.0521 -0.29691,-0.0809 -0.45266,-0.0877 z m 40.80611,4.04345 c -1.0164,0.0523 -2.78963,0.55533 -2.50119,2.9896 0.33876,2.85858 1.24672,5.02487 0.0739,9.22842 2.3697,-1.51321 6.33024,-6.53833 5.60168,-9.47796 -0.28633,-1.15528 -1.55768,-2.82325 -3.17444,-2.74006 z m -31.27507,11.53174 c -0.13841,0.007 -0.26718,0.0286 -0.3828,0.0624 -2.35311,0.68634 -3.73861,7.59525 -3.55978,10.97195 2.24321,-3.42086 4.1659,-3.52014 6.26687,-4.59481 1.7892,-0.91513 1.22922,-3.12335 0.74976,-4.26941 -0.66731,-1.59503 -2.10535,-2.21967 -3.07405,-2.17011 z"
           style="stroke:#d30707;stroke-opacity:1" /><path
           id="path144"
           fill="#d30707"
           stroke="#820000"
           stroke-width="1.7"
           d="m 24.749895,208.78665 c -2.064855,-1.39621 -6.131834,-1.14816 -8.164596,-0.24368 3.17571,1.85913 3.758857,4.20035 5.125671,6.50464 1.164015,1.96222 2.683018,0.69049 3.421369,-0.20331 1.174407,-1.42166 1.12571,-3.74796 0.677617,-4.81598 -0.213837,-0.50955 -0.583514,-0.91946 -1.060061,-1.24167 z m -8.297363,15.25452 c -1.997015,-1.55261 -6.795867,0.47146 -8.806282,2.33453 3.460304,0.61087 4.545619,2.64008 6.3743,4.34326 1.557307,1.45041 2.725694,-0.32858 3.231062,-1.45636 0.804004,-1.79373 0.231983,-4.00372 -0.438158,-4.86145 -0.106507,-0.13641 -0.227787,-0.2565 -0.360922,-0.35998 z m 34.012522,29.08413 c -0.905957,-0.59112 -2.644547,-1.26345 -3.32745,1.03885 -0.801903,2.70353 -0.842022,5.16031 -3.477455,8.08927 2.646003,0.16543 8.026538,-1.73334 8.519775,-4.75171 0.193867,-1.18622 -0.274014,-3.43625 -1.71487,-4.37641 z m -31.68377,-9.5397 c -0.123285,-0.0806 -0.243831,-0.14233 -0.357544,-0.18536 -2.314165,-0.8758 -6.17351,4.27783 -7.313629,7.33279 3.267988,-1.57635 4.981861,-0.45849 7.225451,-0.0791 1.910564,0.32306 2.270122,-1.95218 2.292007,-3.25137 0.03064,-1.80814 -0.982919,-3.25327 -1.846285,-3.81687 z"
           style="stroke:#d30707;stroke-opacity:1" /></g><g
         id="g157"><path
           id="path145"
           fill="#d30707"
           stroke="#800000"
           stroke-width="1.7"
           d="m 141.41986,138.09534 c 0,0 -5.55778,-11.46924 -17.75692,-10.79691 -7.37315,0.40637 -7.25581,3.18411 -12.80547,2.29025 -4.05008,-0.65231 -4.6953,-5.88919 -4.6953,-5.88919 0,0 -2.92599,8.08332 4.86604,10.25156 4.3852,1.22028 9.04765,-1.71057 13.40303,-0.32718 4.86591,1.54556 7.42717,7.96137 7.42717,7.96137 z"
           style="stroke:#d30707;stroke-opacity:1" /><path
           id="path146"
           fill="#ffffff"
           stroke="none"
           d="m 122.01718,120.43195 c 0.84919,6.84381 2.1686,9.74771 3.06573,9.77932 0.39045,-2.01559 0.0325,-6.42151 0.0487,-9.63226 l -3.11444,-0.14694 8e-5,-1.2e-4 z"
           style="fill:#d30707;fill-opacity:1" /><path
           id="path147"
           fill="#ffffff"
           stroke="none"
           d="m 124.6058,141.3428 c -0.84441,-6.84475 -0.24175,-9.44662 0.55544,-10.51043 1.54734,4.01464 1.58107,6.0957 2.37163,9.14358 l -2.92714,1.36679 1.1e-4,6e-5 z"
           style="fill:#d30707;fill-opacity:1" /><path
           id="path148"
           fill="#e1e1dc"
           stroke="none"
           d="m 120.53654,189.81488 c -4.20641,3.81122 -15.85036,8.3197 -24.602229,-2.70941 0,0 4.716059,-0.87204 12.301139,-11.10858 2.07228,-2.79673 8.10896,-5.7204 8.51759,-8.85266 -6.63327,2.08639 -6.93041,-3.94052 -14.74729,-1.85303 0,0 3.13597,-6.04129 8.58242,-8.18451 4.00481,-1.57584 9.98715,-0.70209 14.14289,-1.38977 3.14171,-0.51987 10.55359,-7.71808 10.87915,-8.02997 -3.25236,0.4021 -4.81933,-0.63123 -6.16485,-1.85306 -1.66287,-1.51007 -3.11876,3.62558 -9.67037,2.93402 1.59486,-2.43783 4.01478,-3.99801 3.41213,-6.79181 -0.45529,-2.11056 -1.02153,-4.3641 0.37249,-5.86944 3.04292,-3.28583 8.65392,3.08023 12.54177,0.79312 1.42129,-0.83603 2.2841,-2.89844 2.85608,-4.759 1.666,-5.41919 -0.0704,-11.05054 -5.0912,-10.46988 -2.81591,0.32565 -5.26862,2.85635 -8.07147,3.33133 -1.68431,0.28543 -3.53383,0.5506 -5.09119,-0.31729 -3.1908,-1.77805 -2.42638,-6.5452 -2.48354,-10.46985 -0.40746,-1.26908 -1.007,-2.53815 -1.11758,-3.80722 -0.20817,-4.18167 10.78778,-9.57761 17.38463,-10.787142 0,0 1.4226,-4.163788 4.59452,-5.710846 2.13001,-1.038819 6.57628,-1.521058 8.81653,-2.062226 5.35924,-1.294677 6.45714,-3.48999 6.45714,-3.48999 0.26971,2.402283 0.39934,5.471344 -1.86159,7.27829 4.33269,0.157837 6.58248,-3.508972 6.58248,-3.508972 0.26968,2.402282 0.39933,5.471344 -1.86156,7.278228 4.06219,-0.102233 6.58244,-3.50885 6.58244,-3.50885 0.2697,2.402222 0.39936,5.471218 -1.98684,7.297118 2.44442,0.43955 6.49487,-6.473479 11.88903,-1.41644 0.45784,3.90085 3.23452,15.03625 -9.13847,16.39972 0.72318,3.53552 2.89624,3.84317 3.80769,6.50116 2.01528,5.87674 -0.011,10.21542 1.81319,14.36136 1.34001,3.04553 3.98904,4.1694 3.98904,4.1694 -4.73121,4.70209 -7.15058,-1.76724 -10.6374,-1.54422 0,0 2.06976,5.43301 2.15608,12.1011 0.0944,7.29386 -1.66099,14.56717 -1.16156,21.83402 0.40061,5.82959 3.15276,9.96307 3.15276,9.96307 -6.50278,2.10443 -6.75251,-6.73193 -9.62419,-8.26724 0.69302,15.50638 -4.1139,11.70029 1.65936,33.28091 -8.54523,-0.1333 -14.76012,-10.91821 -15.26598,-17.80633 -2.16156,6.28921 2.14505,15.88217 -3.65057,22.46991 0.68463,-5.27429 -3.59145,-6.88803 -5.14395,-12.50684 -2.68675,13.97257 -8.20246,19.47647 -14.60224,23.74182 0,0 1.6579,-5.42993 1.49341,-8.90319 -0.2166,-4.57367 -2.9351,-10.73462 -3.48459,-15.26261 -0.72909,-6.00775 1.4747,-12.4942 1.4747,-12.4942 z"
           style="fill:#d30707;fill-opacity:1" /></g><path
         id="path158"
         fill="#fee46e"
         stroke="#806600"
         stroke-width="1.7"
         d="m 174.01338,101 c 1.54602,-5.034485 2.07684,-14.607727 7.14878,-20.012634 1.68991,-1.800659 1.74018,-2.334168 0.50575,-2.605103 -3.07234,-0.67456 -7.55222,1.614319 -8.41609,6.627625 -0.86278,-2.229554 -3.12034,-3.614563 -5.09914,-2.07544 -2.51732,1.958374 -1.22348,5.485047 -3.28862,7.392456 3.30856,1.673615 3.15947,-2.401062 4.33336,-2.112182 2.58806,0.672912 -0.16406,4.367248 -1.13683,4.961792 -3.89815,2.38208 -9.2529,-0.009 -9.9788,-3.171143 -0.23041,-1.00415 -0.1767,-5.28894 2.08065,-4.463196 1.1363,0.415589 -1.58227,3.582459 2.01906,4.42865 -0.39775,-2.80542 2.81079,-4.690185 2.09632,-7.827148 -0.56192,-2.465637 -3.17148,-2.855652 -5.23455,-1.692993 2.47571,-4.42566 0.92565,-6.804139 -1.5413,-9.14856 -3.00528,1.568543 -5.13751,3.425049 -3.95075,8.369812 -1.67048,-1.691833 -4.2854,-2.042603 -5.49116,0.172546 -1.5336,2.818177 1.0435,5.523194 -0.096,8.110657 3.69188,0.187927 1.93204,-3.614014 3.13679,-3.697693 2.39377,-0.166259 1.28928,3.969483 0.79674,4.871216 -1.55128,2.839172 -7.34637,3.649597 -10.45263,0.274536 -0.77514,-0.842407 -2.42525,-5.160827 0.24554,-5.088196 1.20679,0.04864 -0.0357,3.926026 3.59778,3.236573 -1.47161,-2.408814 0.7242,-5.440613 -1.16828,-8.024231 -1.48782,-2.030701 -4.03259,-1.326538 -5.46397,0.577759 0.52174,-5.061768 -3.16893,-8.508912 -6.30582,-8.714783 -1.2603,-0.0827 -1.35598,0.444397 -0.21667,2.646179 3.42004,6.608826 1.34668,15.963318 1.47528,21.23526 l 20.2023,2.864136 z"
         style="fill:#d30707;fill-opacity:1;stroke:#d30707;stroke-opacity:1" /><path
         id="path156"
         fill="none"
         stroke="#8e8e8e"
         stroke-width="1.7"
         d="m 139.05484,105.63699 c -0.37279,2.3917 1.30385,5.49775 4.01994,6.18445 2.71607,0.6868 4.7283,-0.81964 5.10114,-3.21136 0.3728,-2.39167 -1.135,-4.12134 -3.85108,-4.80808 -2.71614,-0.68683 -4.89717,-0.5567 -5.27,1.83499 z"
         transform="translate(8.8436332e-6)"
         style="fill:#ffffff;fill-opacity:1;stroke:#ffffff;stroke-opacity:1" /></g><rect
       transform="rotate(9.0000003)"
       style="fill:url(#linearGradient20218);stroke:none"
       id="transverse_gradient"
       class="spoon"
       width="200"
       height="30"
       y="25.999762"
       x="116.99976" /><rect
       transform="rotate(9.0000003)"
       style="fill:url(#radialGradient20215);stroke:none"
       id="longitudinal_gradient"
       class="spoon"
       width="200"
       height="30"
       y="25.999762"
       x="116.99976" /></g><!-- Outline of the spoon --><use
     style="fill:#ffffff;fill-opacity:0;stroke:#000000;stroke-width:1.00157;stroke-dasharray:none"
     id="use4"
     strokewidth="1"
     xlink:href="#spoonPath"
     x="0"
     y="0"
     width="500"
     height="230"
     transform="translate(90.582031)" /></svg>
