<?xml version="1.0" encoding="UTF-8" standalone="no"?>
<!--
I, the author of this work, hereby publish it under the following license:
Permission is granted to copy, distribute and/or modify this document under the 
terms of the GNU Free Documentation License, Version 1.2 or any later version 
published by the Free Software Foundation; with no Invariant Sections, no 
Front-Cover Texts, and no Back-Cover Texts. A copy of the license is included 
in the section entitled "GNU Free Documentation License".

This file is based on the template originaly found here: 
http://commons.wikimedia.org/wiki/Image:Rowing_Blade_Template.svg
For help on editing this file, please see that url.

Template by: Gary van der Merwe 2006
Derived work by:                                   <- Put your name here!
-->

<svg
   width="500"
   height="230"
   id="svg4726"
   version="1.1"
   inkscape:version="1.4 (e7c3feb1, 2024-10-09)"
   sodipodi:docname="Hertford_O1_Rowing_Blade.svg"
   inkscape:export-filename="Hertford_W1_Rowing_Blade.svg"
   inkscape:export-xdpi="96"
   inkscape:export-ydpi="96"
   xml:space="preserve"
   xmlns:inkscape="http://www.inkscape.org/namespaces/inkscape"
   xmlns:sodipodi="http://sodipodi.sourceforge.net/DTD/sodipodi-0.dtd"
   xmlns:xlink="http://www.w3.org/1999/xlink"
   xmlns="http://www.w3.org/2000/svg"
   xmlns:svg="http://www.w3.org/2000/svg"
   xmlns:rdf="http://www.w3.org/1999/02/22-rdf-syntax-ns#"
   xmlns:cc="http://creativecommons.org/ns#"
   xmlns:dc="http://purl.org/dc/elements/1.1/"><metadata
     id="metadata4771"><rdf:RDF><cc:Work
         rdf:about=""><dc:format>image/svg+xml</dc:format><dc:type
           rdf:resource="http://purl.org/dc/dcmitype/StillImage" /></cc:Work></rdf:RDF></metadata><sodipodi:namedview
     pagecolor="#ffffff"
     bordercolor="#666666"
     borderopacity="1"
     objecttolerance="10"
     gridtolerance="10"
     guidetolerance="10"
     inkscape:pageopacity="0"
     inkscape:pageshadow="2"
     inkscape:window-width="2040"
     inkscape:window-height="1347"
     id="namedview4769"
     showgrid="false"
     inkscape:zoom="2.5955487"
     inkscape:cx="264.68392"
     inkscape:cy="155.6511"
     inkscape:window-x="167"
     inkscape:window-y="25"
     inkscape:window-maximized="0"
     inkscape:current-layer="g3777-copy"
     inkscape:showpageshadow="2"
     inkscape:pagecheckerboard="0"
     inkscape:deskcolor="#d1d1d1" /><defs
     id="defs4728"><inkscape:path-effect
       effect="powerclip"
       message=""
       id="path-effect8"
       is_visible="true"
       lpeversion="1"
       inverse="true"
       flatten="false"
       hide_clip="false" /><inkscape:path-effect
       effect="powerclip"
       message=""
       id="path-effect5"
       is_visible="true"
       lpeversion="1"
       inverse="true"
       flatten="false"
       hide_clip="false" /><linearGradient
       y2="15"
       y1="-15"
       x2="0"
       gradientUnits="userSpaceOnUse"
       id="linearGradient20280"><stop
         id="stop20282"
         style="stop-color:#ffffff;stop-opacity:1;"
         offset="0" /><stop
         id="stop20284"
         style="stop-color:#ffffff;stop-opacity:1;"
         offset="0.44999999" /><stop
         id="stop20286"
         style="stop-color:#b5b5b5;stop-opacity:1;"
         offset="0.55000001" /><stop
         id="stop20288"
         style="stop-color:#ffffff;stop-opacity:1;"
         offset="1" /></linearGradient><radialGradient
       spreadMethod="pad"
       id="radialGradient20274"
       cx="0"
       cy="0"
       r="77.459663"
       gradientTransform="scale(2.5819889,0.38729833)"
       fx="0"
       fy="0"
       gradientUnits="userSpaceOnUse"><stop
         offset="0.5"
         style="stop-color:#ffffff;stop-opacity:0;"
         id="stop20276" /><stop
         offset="0.94999999"
         style="stop-color:#ffffff;stop-opacity:1;"
         id="stop20278" /></radialGradient><linearGradient
       id="loomGradient"
       gradientUnits="userSpaceOnUse"
       x2="0"
       y1="-14"
       y2="14"><stop
         offset="0%"
         style="stop-color:black;"
         id="stop4731" /><stop
         offset="25%"
         style="stop-color:lightgray;"
         id="stop4733" /><stop
         offset="60%"
         style="stop-color:black;"
         id="stop4735" /></linearGradient><!-- Ensure these colors match up with the background of the spoon--><path
       id="spoonPath"
       d="M 105,75 C 105,76 106,77 107,77 C 139,89 170,149 177,181 C 231,199 389,201 455,201 C 458,201 461,198 461,195 L 450,27 C 450,24 447,21 444,21 L 113,43 C 112,43 111,44 111,45  Z" /><linearGradient
       inkscape:collect="always"
       xlink:href="#loomGradient"
       id="linearGradient16448"
       gradientUnits="userSpaceOnUse"
       gradientTransform="translate(117,40.999999)"
       y1="-14"
       x2="0"
       y2="14" /><radialGradient
       inkscape:collect="always"
       xlink:href="#radialGradient20274"
       id="radialGradient20215"
       gradientUnits="userSpaceOnUse"
       gradientTransform="matrix(2.5819889,0,0,0.38729833,116.99976,40.999762)"
       cx="0"
       cy="0"
       fx="0"
       fy="0"
       r="77.459663" /><linearGradient
       inkscape:collect="always"
       xlink:href="#linearGradient20280"
       id="linearGradient20218"
       gradientUnits="userSpaceOnUse"
       gradientTransform="translate(116.99976,40.999762)"
       y1="-15"
       x2="0"
       y2="15" /><clipPath
       clipPathUnits="userSpaceOnUse"
       id="clipPath4"><use
         style="fill:#ffffff;fill-opacity:0;stroke:#000000;stroke-width:1.00157;stroke-dasharray:none"
         id="use5"
         strokewidth="1"
         xlink:href="#spoonPath"
         x="0"
         y="0"
         width="500"
         height="230"
         inkscape:label="spoon clip" /></clipPath><clipPath
       clipPathUnits="userSpaceOnUse"
       id="clipPath5-6"><circle
         style="display:none;fill:#ffffff;fill-opacity:1;stroke:#000000;stroke-width:0;stroke-dasharray:none;stroke-opacity:1"
         id="circle5-2"
         cx="418.25143"
         cy="52.584553"
         r="0.63816208"
         d="m 418.8896,52.584553 a 0.63816208,0.63816208 0 0 1 -0.63817,0.638162 0.63816208,0.63816208 0 0 1 -0.63816,-0.638162 0.63816208,0.63816208 0 0 1 0.63816,-0.638162 0.63816208,0.63816208 0 0 1 0.63817,0.638162 z" /><path
         id="lpe_path-effect5-8"
         style="fill:#ffffff;fill-opacity:1;stroke:#000000;stroke-width:0;stroke-dasharray:none;stroke-opacity:1"
         class="powerclip"
         d="m 373.44305,42.733284 h 55.28144 V 177.57653 h -55.28144 z m 45.44655,9.851269 a 0.63816208,0.63816208 0 0 0 -0.63817,-0.638162 0.63816208,0.63816208 0 0 0 -0.63816,0.638162 0.63816208,0.63816208 0 0 0 0.63816,0.638162 0.63816208,0.63816208 0 0 0 0.63817,-0.638162 z" /></clipPath><inkscape:path-effect
       effect="powerclip"
       message=""
       id="path-effect5-5"
       is_visible="true"
       lpeversion="1"
       inverse="true"
       flatten="false"
       hide_clip="false" /><clipPath
       clipPathUnits="userSpaceOnUse"
       id="clipPath7"><path
         style="display:block;fill:#ffffff;fill-opacity:1;stroke:#000000;stroke-width:0;stroke-dasharray:none;stroke-opacity:1"
         d="m 417.62405,51.830054 c 0.25673,-0.324022 1.46341,0.189014 2.02823,0.81006 0.56483,0.621045 1.33504,1.755127 1.18099,1.971142 -0.15403,0.216015 -1.61745,-0.729053 -1.89985,-1.053077 -0.28243,-0.324023 -1.51477,-1.404101 -1.30937,-1.728125 z"
         id="path8"
         inkscape:label="eye" /></clipPath></defs><!-- loom of the blade --><!-- Any thing in here will be cliped to the shape of the spoon --><rect
     style="fill:none"
     id="background"
     height="230"
     width="500"
     y="0"
     x="0" /><rect
     style="fill:url(#linearGradient16448)"
     transform="matrix(0.98768834,0.15643447,-0.15643447,0.98768834,0,0)"
     x="-83"
     y="27"
     height="28"
     width="200"
     id="shaft" /><g
     id="g47816"
     inkscape:label="spoon"
     clip-path="url(#clipPath4)"><use
       style="fill:#ffffff;fill-opacity:1;stroke:#000000;stroke-opacity:1"
       id="spoon_face"
       strokewidth="1"
       xlink:href="#spoonPath"
       x="0"
       y="0"
       width="500"
       height="230"
       inkscape:label="spoon face" /><rect
       transform="matrix(0.98768834,0.15643447,-0.15643447,0.98768834,0,0)"
       style="fill:url(#linearGradient20218);stroke:none"
       id="transverse_gradient"
       class="spoon"
       width="200"
       height="30"
       y="25.999762"
       x="116.99976" /><rect
       transform="matrix(0.98768834,0.15643447,-0.15643447,0.98768834,0,0)"
       style="fill:url(#radialGradient20215);stroke:none"
       id="longitudinal_gradient"
       class="spoon"
       width="200"
       height="30"
       y="25.999762"
       x="116.99976" /><g
       id="g1"
       transform="matrix(0.25366058,-0.01773768,0.01773768,0.25366058,314.26812,43.326533)"
       inkscape:label="icon"><path
         id="path5016-copy"
         fill="#ffe24b"
         stroke="none"
         d="m 200.72079,19.636597 c 20.23249,11.516418 30.86374,28.799743 35.70479,49.680847 -20.8575,-4.846436 -38.12126,-15.489807 -49.6246,-35.745239 v 97.244625 c 11.50334,-20.25543 28.7671,-30.898739 49.6246,-35.745297 -4.84105,20.881227 -15.4723,38.164457 -35.70479,49.680907 h 37.68792 L 249.28949,232 260.16736,144.75244 h 37.68793 c -20.23249,-11.51645 -30.86088,-28.79968 -35.70188,-49.680907 20.85748,4.846558 38.12122,15.489867 49.6246,35.745297 V 33.572205 c -11.50335,20.255432 -28.76712,30.898803 -49.6246,35.745239 4.841,-20.881104 15.46939,-38.164429 35.70188,-49.680847 z"
         inkscape:label="cross"
         style="fill:#8e0f00;fill-opacity:1" /><g
         id="g3777-copy"
         inkscape:label="head"><path
           id="path3713"
           fill="#e1e1dc"
           stroke="#8e8e8e"
           stroke-width="1.7"
           stroke-linecap="round"
           d="m 276.49237,528.85974 c 0,12.78003 -12.19632,23.14026 -27.24132,23.14026 -15.04495,0 -27.24132,-10.36023 -27.24132,-23.14026 0,-12.77997 12.19637,-23.14023 27.24132,-23.14023 15.045,0 27.24132,10.36026 27.24132,23.14023 z"
           inkscape:label="jaw"
           style="fill:#8e0f00;fill-opacity:1;stroke:#ffffff;stroke-opacity:1" /><g
           id="g3702"
           inkscape:label="ears"><path
             id="path3617"
             fill="#f0f0ec"
             stroke="#8e8e8e"
             stroke-width="1.7"
             d="m 69.477577,298.45258 c -5.525226,-0.40259 -4.184166,13.63992 1.26754,28.11148 5.911293,15.69152 18.181313,35.13882 52.062623,44.44101 23.545,6.46432 64.67358,-8.13691 64.67358,-8.13691 l 1.76811,-20.51666 c 0,0 -21.31024,-15.87836 -41.7028,-19.10141 -15.48268,-2.44705 -34.20486,-1.19946 -49.123572,-6.01257 -11.226021,-3.6218 -23.446846,-15.96045 -26.14988,-17.68616 -1.077629,-0.68799 -2.006287,-1.04129 -2.795601,-1.09878 z m 359.546873,0 c -0.78934,0.0574 -1.71799,0.41079 -2.79563,1.09878 -2.703,1.72571 -14.92386,14.06436 -26.14987,17.68616 -14.91873,4.81311 -33.64087,3.56552 -49.12357,6.01257 -20.39254,3.22305 -41.70282,19.10141 -41.70282,19.10141 l 1.76813,20.51666 c 0,0 41.12857,14.60123 64.67358,8.13691 33.88132,-9.30219 46.15134,-28.74949 52.06263,-44.44101 5.45172,-14.47156 6.79278,-28.51407 1.26755,-28.11148 z"
             style="fill:#8e0f00;fill-opacity:1;stroke:#ffffff;stroke-opacity:1" /></g><path
           id="path3572"
           fill="#e1e1dc"
           stroke="#8e8e8e"
           stroke-width="1.7"
           d="m 240.88487,536.74048 c -4.43634,-1.80383 -7.03375,-6.72998 -11.33912,-8.8277 -3.11382,-1.51715 -7.50405,-0.20447 -10.07923,-2.52216 -9.58885,-8.63006 -4.26855,-22.21765 -4.26855,-22.21765 l -5.1807,-26.96514 c -4.87236,-25.36036 -36.87411,-49.75965 -32.75746,-76.92701 -5.06831,-10.86535 -7.24945,-22.14358 -0.62997,-34.6802 0,0 -1.77478,-30.0228 6.29953,-42.24677 10.03006,-15.18478 28.75149,-24.96735 46.61638,-28.37469 7.32487,-1.39707 19.70526,2.52218 19.70526,2.52218 0,0 12.38046,-3.91925 19.70529,-2.52218 17.86493,3.40734 36.58633,13.18991 46.61639,28.37469 8.07431,12.22397 6.29953,42.24677 6.29953,42.24677 6.61948,12.53662 4.43833,23.81485 -0.62997,34.6802 4.11664,27.16736 -27.8851,51.56665 -32.75748,76.92701 l -5.18069,26.96514 c 0,0 5.32025,13.58759 -4.26856,22.21765 -2.57522,2.31769 -6.96539,1.00501 -10.07922,2.52216 -4.30536,2.09772 -6.90277,7.02387 -11.33911,8.8277 -3.52336,1.43262 -8.36618,1.26111 -8.36618,1.26111 0,0 -4.84278,0.17151 -8.36614,-1.26111 z"
           inkscape:label="head"
           style="fill:#8e0f00;fill-opacity:1;stroke:#8e0f00;stroke-opacity:1" /><g
           id="g3734"
           inkscape:label="details"><path
             id="path3441"
             fill="#8e8e8e"
             stroke="none"
             d="m 188.98891,358.68771 c -2.15636,0.024 -4.29424,-0.39966 -6.19425,0.89872 3.25019,-0.0855 10.31081,0.39508 14.01608,3.92047 4.95797,4.90088 7.78963,13.12481 10.91311,20.08007 3.02542,6.73688 10.26908,9.07163 10.26908,9.07163 0,0 -5.0124,-3.68515 -7.53495,-9.30228 -3.02739,-6.74133 -5.82295,-15.33465 -11.53955,-20.98547 -2.68918,-2.23029 -6.3356,-3.72321 -9.92952,-3.68314 z m 120.52418,0 c -3.5939,-0.0401 -7.24032,1.45285 -9.9295,3.68314 -5.71662,5.65082 -8.51218,14.24414 -11.53955,20.98547 -2.52256,5.61713 -7.53498,9.30228 -7.53498,9.30228 0,0 7.24369,-2.33475 10.26911,-9.07163 3.12347,-6.95526 5.95514,-15.17919 10.91308,-20.08007 3.70529,-3.52539 10.76587,-4.00598 14.01609,-3.92047 -1.89997,-1.29838 -4.03791,-0.87473 -6.19425,-0.89872 z m -127.06386,34.96714 c 1.54715,3.85144 4.58229,5.14126 8.2873,6.09085 3.70497,0.94958 7.98135,1.49429 12.24211,-2.16745 -5.07428,0.72925 -8.53484,1.02038 -11.49857,0.2608 -4.3479,-0.75964 -5.52466,-2.63052 -9.03084,-4.1842 z m 133.60354,0 c -3.50617,1.55368 -4.68296,3.42456 -9.03083,4.1842 -2.96374,0.75958 -6.42431,0.46845 -11.49856,-0.2608 4.26077,3.66174 8.53711,3.11703 12.24209,2.16745 3.70502,-0.94959 6.74014,-2.23941 8.2873,-6.09085 z m -97.29873,11.36883 c 3.4742,7.42035 3.70114,13.37943 2.95253,19.54089 -0.49174,4.04746 -0.89346,9.01264 0.50643,16.58738 0.76065,4.11584 2.78927,7.69131 4.66324,11.13443 1.874,3.44305 3.59147,6.74603 4.06314,10.22021 1.33151,9.80792 -4.3196,20.34671 -4.3196,20.34671 0,0 7.81345,-9.53561 6.29085,-20.75107 -0.56603,-4.16943 -2.51813,-7.78909 -4.40271,-11.25161 -1.88457,-3.46253 -3.70592,-6.77433 -4.34709,-10.24369 -1.33988,-7.25 -0.77541,-11.7034 -0.48009,-15.68194 0.46243,-6.23029 2.34821,-16.7428 -4.9267,-19.90131 z m 60.99391,0 c -7.2749,3.15851 -5.38912,13.67102 -4.92669,19.90131 0.29532,3.97854 0.8598,8.43194 -0.48007,15.68194 -0.64118,3.46936 -2.46253,6.78116 -4.34711,10.24369 -1.88458,3.46252 -3.83667,7.08218 -4.40271,11.25161 -1.52258,11.21546 6.29086,20.75107 6.29086,20.75107 0,0 -5.65112,-10.53879 -4.31961,-20.34671 0.47168,-3.47418 2.18915,-6.77716 4.06314,-10.22021 1.87396,-3.44312 3.90259,-7.01859 4.66324,-11.13443 1.3999,-7.57474 0.99817,-12.53992 0.50644,-16.58738 -0.74863,-6.16146 -0.52167,-12.12054 2.95251,-19.54089 z m -52.93203,91.60199 c -1.19335,0.012 -2.40796,0.19058 -3.63283,0.58893 -3.26633,1.06222 -5.95067,3.87436 -9.08937,8.53625 l 1.22363,0.81586 c 2.38065,-4.83002 6.24068,-6.7861 8.7937,-7.49817 2.46392,-0.80124 4.88056,-0.45572 7.48227,0.43952 5.20345,1.79059 10.74097,6.06308 16.8673,3.89703 -4.80143,-0.99576 -10.03684,-3.72031 -15.89542,-5.73633 -1.46463,-0.50396 -2.99254,-0.88144 -4.56372,-1.00207 z m 44.87018,0 c -0.39777,-0.005 -0.79279,0.0105 -1.18558,0.041 -1.57117,0.1206 -3.09909,0.49807 -4.56372,1.0021 -5.85858,2.01602 -11.094,4.74054 -15.89542,5.73633 6.12635,2.16605 11.66385,-2.10648 16.86731,-3.89706 2.60172,-0.89527 5.01834,-1.24079 7.48227,-0.43952 2.55301,0.71207 6.41306,2.66815 8.7937,7.49817 l 1.22363,-0.81583 c -3.1387,-4.66195 -5.82305,-7.47403 -9.08938,-8.53625 z m -40.87145,14.15454 c -0.18841,0.006 -0.36102,0.0493 -0.51521,0.12888 -0.61142,0.31842 -0.90096,1.19394 -0.80487,2.43368 0.0961,1.23981 0.56991,2.74225 1.31715,4.17664 0.74689,1.43408 1.70593,2.68286 2.66612,3.47144 0.96021,0.78851 1.84287,1.0523 2.4538,0.73327 0.61142,-0.31848 0.90096,-1.19391 0.80487,-2.43372 -0.0961,-1.2398 -0.56992,-2.7423 -1.31717,-4.17663 z m 36.8727,0 c -1.33969,-0.0495 -3.26514,1.76258 -4.60471,4.33362 -0.74722,1.43439 -1.22107,2.93683 -1.31714,4.17657 -0.0961,1.23981 0.19345,2.11536 0.80487,2.43378 0.61093,0.31903 1.49359,0.0552 2.4538,-0.73333 0.96017,-0.78858 1.91922,-2.0373 2.66611,-3.47138 0.74725,-1.43439 1.2211,-2.93683 1.31717,-4.17664 0.0961,-1.2398 -0.19346,-2.11523 -0.80487,-2.43371 z"
             inkscape:label="details"
             style="fill:#ffffff;fill-opacity:1" /><path
             id="path3439"
             fill="#ffffff"
             stroke="#8e8e8e"
             stroke-width="1.7"
             d="m 186.07793,371.69769 c -2.2573,0.84153 -3.41469,4.79688 -3.14383,7.19263 0.59979,5.30505 2.96241,10.65607 7.48524,13.48621 6.46433,4.04498 13.12735,-0.7031 13.92253,-2.24772 3.89423,-7.56482 -8.22625,-22.17324 -18.26394,-18.43112 z"
             inkscape:label="left eye"
             style="stroke:#8e0f00;stroke-opacity:1;fill:#ffffff;fill-opacity:1" /><path
             id="path3471"
             fill="#ffffff"
             stroke="#8e8e8e"
             stroke-width="1.7"
             d="m 312.4241,371.69769 c 2.2573,0.84153 3.41471,4.79688 3.14383,7.19263 -0.59979,5.30505 -2.96243,10.65607 -7.48526,13.48621 -6.46432,4.04498 -13.12732,-0.7031 -13.92248,-2.24772 -3.89423,-7.56482 8.22622,-22.17324 18.26391,-18.43112 z"
             style="stroke:#8e0f00;stroke-opacity:1;fill:#ffffff;fill-opacity:1"
             inkscape:label="right eye" /></g><g
           id="g3570"
           inkscape:label="antlers"><path
             id="path3509"
             fill="#ebd25d"
             stroke="#937500"
             stroke-width="1.7"
             d="m 137.34195,51.004639 c -3.65697,-0.05853 -7.63942,0.392944 -13.39841,4.093322 -8.89317,5.714234 -12.13755,24.290406 -18.38366,37.027832 -3.25132,6.630311 -9.215916,11.743717 -16.972668,12.804597 C 70.939758,107.34396 74.220695,85.864868 65.361748,75.233704 57.390091,65.667297 47.492214,67.546997 45.294872,68.819702 c -3.306148,1.914978 6.828877,4.689026 12.300656,16.921387 4.090469,9.144317 1.444835,18.811951 5.497535,25.931491 5.298531,9.3081 13.694298,7.26806 19.861969,16.17129 0.198922,15.23462 0.800698,28.62897 2.186707,40.88385 -1.192841,2.08875 -2.73552,3.84381 -4.642746,4.14612 -4.842171,0.76746 -8.182579,-1.27875 -10.819428,-8.55008 -3.297142,-9.09219 -3.778411,-21.01178 -10.816501,-27.63974 -7.797123,-7.34283 -15.975285,-8.67721 -22.206757,-7.69449 -7.310386,1.15283 10.852703,4.9642 15.374359,14.8176 4.226509,9.2102 1.88366,20.42023 5.406788,29.9223 1.953617,5.26901 4.461998,9.52939 8.541962,13.3906 5.119324,4.84484 13.505958,6.16271 18.787628,10.82971 3.419907,3.02188 7.345711,9.54486 9.484551,13.32907 3.718215,11.11944 8.246425,20.89505 13.369135,29.49158 -0.39665,1.90795 -0.97081,3.75881 -1.83544,4.93429 -1.7427,2.36923 -4.73616,4.32834 -7.675457,4.34244 -14.490875,0.0696 -25.370201,-18.67896 -39.718067,-20.71295 -7.455738,-1.05695 -11.949528,0.14639 -17.02245,3.3403 -5.915821,3.72461 7.631332,2.51239 13.682362,6.0126 12.672115,7.33014 22.013286,25.77106 35.379757,31.73899 6.302848,2.81411 12.233055,2.22915 19.024735,1.00207 5.64138,-1.01919 9.59783,-8.51294 17.91821,-5.324 14.8699,14.36795 30.03719,21.47094 42.50196,29.63223 9.13622,5.9819 18.81462,13.50226 18.74372,22.13992 -13.78293,18.56281 6.50184,22.48734 9.8739,14.25205 16.19429,4.38955 20.47705,-10.70566 21.07681,-13.30271 12.99399,-0.32657 7.19095,-20.59451 -8.68541,-15.36844 -1.91595,-4.58972 -5.19885,-8.75723 -9.104,-12.51742 -0.43021,-4.97901 -0.61104,-11.2706 0.46251,-16.25333 2.63742,-12.24118 14.72592,-19.65445 14.01901,-38.00357 -0.74166,-19.25073 -16.62181,-27.40326 -20.44451,-42.09396 -1.37403,-5.28052 5.96715,-14.31705 0.58547,-13.44629 -2.20401,0.3566 -8.53533,4.12225 -8.76151,14.61539 -0.32043,14.8652 12.57193,29.64645 8.17604,43.84912 -2.52594,8.1611 -11.56677,11.04794 -16.35208,18.12274 -2.17357,3.21347 -4.90732,8.58359 -7.06073,13.05072 -9.32451,-5.54044 -19.93986,-12.0907 -29.10063,-20.92392 -15.06236,-14.52387 -29.40973,-34.96802 -36.52142,-67.82623 0.96568,-4.92026 2.82737,-10.37195 6.45184,-13.85944 11.1003,-10.6807 24.1769,-9.93457 32.02797,-18.16669 7.88004,-8.26251 8.7598,-23.10293 14.23563,-33.1249 3.85949,-7.06379 12.82153,-5.27851 9.96171,-8.54715 -1.15008,-1.31449 -2.63395,-1.90467 -4.39686,-1.87528 -2.26657,0.0378 -4.99166,1.09619 -8.05602,2.94183 -9.73703,5.86454 -12.84418,20.23526 -22.42045,26.35929 -6.43009,4.112 -14.98479,2.55957 -21.35198,6.76855 -5.29975,3.50339 -8.51323,7.18466 -10.47398,10.40192 -0.63587,-9.15113 -2.933558,-18.70734 -2.20428,-29.57657 6.25082,-11.58405 7.53304,-6.11588 17.85379,-23.476044 6.62605,-11.145477 4.40248,-29.316864 12.74561,-39.240082 5.38939,-6.410034 16.6585,-3.190429 13.46866,-7.943481 0,0 -2.58142,-1.612488 -7.2832,-1.687744 z m 223.81811,0 c -4.70181,0.07526 -7.2832,1.687744 -7.2832,1.687744 -3.18985,4.753052 8.07929,1.533447 13.46866,7.943481 8.34311,9.923218 6.11954,28.094605 12.7456,39.240082 10.32078,17.360164 11.60294,11.891994 17.85383,23.476044 0.72924,10.86923 -1.56842,20.42544 -2.20429,29.57657 -1.96078,-3.21726 -5.17425,-6.89853 -10.474,-10.40192 -6.36719,-4.20898 -14.92187,-2.65655 -21.35199,-6.76855 -9.57626,-6.12403 -12.68341,-20.49475 -22.42044,-26.35929 -3.06439,-1.84564 -5.78946,-2.90405 -8.05603,-2.94183 -1.76291,-0.0294 -3.24676,0.56079 -4.39685,1.87528 -2.85983,3.26864 6.1022,1.48336 9.9617,8.54715 5.47583,10.02197 6.35556,24.86239 14.23563,33.1249 7.85107,8.23212 20.92767,7.48599 32.02798,18.16669 3.62448,3.48749 5.48615,8.93918 6.45185,13.85944 -7.1117,32.85821 -21.45908,53.30236 -36.52143,67.82623 -9.16076,8.83322 -19.77615,15.38348 -29.10064,20.92392 -2.15342,-4.46713 -4.88712,-9.83725 -7.06073,-13.05072 -4.78531,-7.0748 -13.82612,-9.96164 -16.35209,-18.12274 -4.39587,-14.20267 8.49649,-28.98392 8.17606,-43.84912 -0.2262,-10.49314 -6.5575,-14.25879 -8.7615,-14.61539 -5.38169,-0.87076 1.95953,8.16577 0.58544,13.44629 -3.82269,14.6907 -19.70285,22.84323 -20.44448,42.09396 -0.70691,18.34912 11.38159,25.76239 14.01898,38.00357 1.07358,4.98273 0.89276,11.27432 0.46252,16.25333 -3.90515,3.76019 -7.18805,7.9277 -9.104,12.51742 -15.87635,-5.22607 -21.67938,15.04187 -8.6854,15.36844 0.59977,2.59705 4.88251,17.69226 21.07682,13.30271 3.37204,8.23529 23.65683,4.31076 9.8739,-14.25205 -0.0709,-8.63766 9.60748,-16.15802 18.74371,-22.13992 12.46475,-8.16129 27.63205,-15.26428 42.50196,-29.63223 8.3204,-3.18894 12.27682,4.30481 17.91821,5.324 6.79168,1.22708 12.72192,1.81204 19.02475,-1.00207 13.36648,-5.96793 22.70764,-24.40885 35.37976,-31.73899 6.05102,-3.50021 19.59817,-2.28799 13.68234,-6.0126 -5.07294,-3.19391 -9.56671,-4.39725 -17.02243,-3.3403 -14.34787,2.03399 -25.22717,20.78253 -39.71808,20.71295 -2.9393,-0.0135 -5.93274,-1.97321 -7.67548,-4.34244 -0.86459,-1.17548 -1.43878,-3.02634 -1.83541,-4.93429 5.12274,-8.59653 9.65091,-18.37214 13.36911,-29.49158 2.13885,-3.78421 6.06466,-10.30719 9.48458,-13.32907 5.28162,-4.667 13.66831,-5.98487 18.78763,-10.82971 4.07996,-3.86121 6.58832,-8.12159 8.54196,-13.3906 3.52314,-9.50207 1.18027,-20.7121 5.40677,-29.9223 4.5217,-9.8534 22.68476,-13.66477 15.37436,-14.8176 -6.23147,-0.98272 -14.4096,0.35166 -22.20675,7.69449 -7.03809,6.62796 -7.51935,18.54755 -10.8165,27.63974 -2.63684,7.27133 -5.97724,9.31754 -10.81943,8.55008 -1.90726,-0.30231 -3.44989,-2.05737 -4.64276,-4.14612 1.38602,-12.25488 1.98782,-25.64923 2.18674,-40.88385 6.16766,-8.90323 14.56344,-6.86319 19.86197,-16.17129 4.0527,-7.11954 1.40707,-16.787174 5.49752,-25.931491 5.47177,-12.232361 15.60682,-15.006409 12.30066,-16.921387 -2.19732,-1.272705 -12.09521,-3.152405 -20.06689,6.414002 -8.85892,10.631164 -5.57804,32.110256 -23.22546,29.696686 -7.75675,-1.06088 -13.72132,-6.174286 -16.97269,-12.804597 -6.2461,-12.737426 -9.49051,-31.313598 -18.38364,-37.027832 -5.759,-3.700378 -9.74145,-4.151855 -13.39841,-4.093322 z"
             style="fill:#8e0f00;fill-opacity:1;stroke:#961f11;stroke-opacity:1" /></g></g></g></g><!-- Outline of the spoon --><use
     style="fill:#ffffff;fill-opacity:0;stroke:#000000;stroke-width:1.0015748;stroke-dasharray:none"
     id="use4"
     strokewidth="1"
     xlink:href="#spoonPath"
     x="0"
     y="0"
     width="500"
     height="230"
     inkscape:label="spoon outline" /></svg>
