<?xml version="1.0" encoding="UTF-8" standalone="no"?>
<!--
I, the author of this work, hereby publish it under the following license:
Permission is granted to copy, distribute and/or modify this document under the 
terms of the GNU Free Documentation License, Version 1.2 or any later version 
published by the Free Software Foundation; with no Invariant Sections, no 
Front-Cover Texts, and no Back-Cover Texts. A copy of the license is included 
in the section entitled "GNU Free Documentation License".

This file is based on the template originaly found here: 
http://commons.wikimedia.org/wiki/Image:Rowing_Blade_Template.svg
For help on editing this file, please see that url.

Template by: Gary van der Merwe 2006
Derived work by:                                   <- Put your name here!
-->

<svg
   width="500"
   height="230"
   id="svg4726"
   version="1.1"
   inkscape:version="1.4 (e7c3feb1, 2024-10-09)"
   sodipodi:docname="Osler_House_Rowing_Blade.svg"
   inkscape:export-filename="Wadham_College_Rowing_Blade_White.png"
   inkscape:export-xdpi="96"
   inkscape:export-ydpi="96"
   xml:space="preserve"
   xmlns:inkscape="http://www.inkscape.org/namespaces/inkscape"
   xmlns:sodipodi="http://sodipodi.sourceforge.net/DTD/sodipodi-0.dtd"
   xmlns:xlink="http://www.w3.org/1999/xlink"
   xmlns="http://www.w3.org/2000/svg"
   xmlns:svg="http://www.w3.org/2000/svg"
   xmlns:rdf="http://www.w3.org/1999/02/22-rdf-syntax-ns#"
   xmlns:cc="http://creativecommons.org/ns#"
   xmlns:dc="http://purl.org/dc/elements/1.1/"><metadata
     id="metadata4771"><rdf:RDF><cc:Work
         rdf:about=""><dc:format>image/svg+xml</dc:format><dc:type
           rdf:resource="http://purl.org/dc/dcmitype/StillImage" /></cc:Work></rdf:RDF></metadata><sodipodi:namedview
     pagecolor="#ffffff"
     bordercolor="#666666"
     borderopacity="1"
     objecttolerance="10"
     gridtolerance="10"
     guidetolerance="10"
     inkscape:pageopacity="0"
     inkscape:pageshadow="2"
     inkscape:window-width="2040"
     inkscape:window-height="1347"
     id="namedview4769"
     showgrid="false"
     inkscape:zoom="2.259044"
     inkscape:cx="197.42865"
     inkscape:cy="39.839862"
     inkscape:window-x="458"
     inkscape:window-y="25"
     inkscape:window-maximized="0"
     inkscape:current-layer="g47816"
     inkscape:showpageshadow="2"
     inkscape:pagecheckerboard="0"
     inkscape:deskcolor="#d1d1d1" /><defs
     id="defs4728"><inkscape:path-effect
       effect="powerclip"
       message=""
       id="path-effect8"
       is_visible="true"
       lpeversion="1"
       inverse="true"
       flatten="false"
       hide_clip="false" /><inkscape:path-effect
       effect="powerclip"
       message=""
       id="path-effect5"
       is_visible="true"
       lpeversion="1"
       inverse="true"
       flatten="false"
       hide_clip="false" /><linearGradient
       y2="15"
       y1="-15"
       x2="0"
       gradientUnits="userSpaceOnUse"
       id="linearGradient20280"><stop
         id="stop20282"
         style="stop-color:#ffffff;stop-opacity:1;"
         offset="0" /><stop
         id="stop20284"
         style="stop-color:#ffffff;stop-opacity:1;"
         offset="0.44999999" /><stop
         id="stop20286"
         style="stop-color:#d9d9d9;stop-opacity:1;"
         offset="0.55000001" /><stop
         id="stop20288"
         style="stop-color:#ffffff;stop-opacity:1;"
         offset="1" /></linearGradient><radialGradient
       spreadMethod="pad"
       id="radialGradient20274"
       cx="0"
       cy="0"
       r="77.459663"
       gradientTransform="scale(2.5819889,0.38729833)"
       fx="0"
       fy="0"
       gradientUnits="userSpaceOnUse"><stop
         offset="0.5"
         style="stop-color:#ffffff;stop-opacity:0;"
         id="stop20276" /><stop
         offset="0.94999999"
         style="stop-color:#ffffff;stop-opacity:1;"
         id="stop20278" /></radialGradient><linearGradient
       id="loomGradient"
       gradientUnits="userSpaceOnUse"
       x2="0"
       y1="-14"
       y2="14"><stop
         offset="0%"
         style="stop-color:black;"
         id="stop4731" /><stop
         offset="25%"
         style="stop-color:lightgray;"
         id="stop4733" /><stop
         offset="60%"
         style="stop-color:black;"
         id="stop4735" /></linearGradient><!-- Ensure these colors match up with the background of the spoon--><path
       id="spoonPath"
       d="M 105,75 C 105,76 106,77 107,77 C 139,89 170,149 177,181 C 231,199 389,201 455,201 C 458,201 461,198 461,195 L 450,27 C 450,24 447,21 444,21 L 113,43 C 112,43 111,44 111,45  Z" /><linearGradient
       inkscape:collect="always"
       xlink:href="#loomGradient"
       id="linearGradient16448"
       gradientUnits="userSpaceOnUse"
       gradientTransform="translate(117,40.999999)"
       y1="-14"
       x2="0"
       y2="14" /><radialGradient
       inkscape:collect="always"
       xlink:href="#radialGradient20274"
       id="radialGradient20215"
       gradientUnits="userSpaceOnUse"
       gradientTransform="matrix(2.5819889,0,0,0.38729833,116.99976,40.999762)"
       cx="0"
       cy="0"
       fx="0"
       fy="0"
       r="77.459663" /><linearGradient
       inkscape:collect="always"
       xlink:href="#linearGradient20280"
       id="linearGradient20218"
       gradientUnits="userSpaceOnUse"
       gradientTransform="translate(116.99976,40.999762)"
       y1="-15"
       x2="0"
       y2="15" /><clipPath
       clipPathUnits="userSpaceOnUse"
       id="clipPath4"><use
         style="fill:#ffffff;fill-opacity:0;stroke:#000000;stroke-width:1.00157;stroke-dasharray:none"
         id="use5"
         strokewidth="1"
         xlink:href="#spoonPath"
         x="0"
         y="0"
         width="500"
         height="230"
         inkscape:label="spoon clip" /></clipPath><clipPath
       clipPathUnits="userSpaceOnUse"
       id="clipPath5-6"><circle
         style="display:none;fill:#ffffff;fill-opacity:1;stroke:#000000;stroke-width:0;stroke-dasharray:none;stroke-opacity:1"
         id="circle5-2"
         cx="418.25143"
         cy="52.584553"
         r="0.63816208"
         d="m 418.8896,52.584553 a 0.63816208,0.63816208 0 0 1 -0.63817,0.638162 0.63816208,0.63816208 0 0 1 -0.63816,-0.638162 0.63816208,0.63816208 0 0 1 0.63816,-0.638162 0.63816208,0.63816208 0 0 1 0.63817,0.638162 z" /><path
         id="lpe_path-effect5-8"
         style="fill:#ffffff;fill-opacity:1;stroke:#000000;stroke-width:0;stroke-dasharray:none;stroke-opacity:1"
         class="powerclip"
         d="m 373.44305,42.733284 h 55.28144 V 177.57653 h -55.28144 z m 45.44655,9.851269 a 0.63816208,0.63816208 0 0 0 -0.63817,-0.638162 0.63816208,0.63816208 0 0 0 -0.63816,0.638162 0.63816208,0.63816208 0 0 0 0.63816,0.638162 0.63816208,0.63816208 0 0 0 0.63817,-0.638162 z" /></clipPath><inkscape:path-effect
       effect="powerclip"
       message=""
       id="path-effect5-5"
       is_visible="true"
       lpeversion="1"
       inverse="true"
       flatten="false"
       hide_clip="false" /><clipPath
       clipPathUnits="userSpaceOnUse"
       id="clipPath7"><path
         style="display:none;fill:#ffffff;fill-opacity:1;stroke:#000000;stroke-width:0;stroke-dasharray:none;stroke-opacity:1"
         d="m 417.62405,51.830054 c 0.25673,-0.324022 1.46341,0.189014 2.02823,0.81006 0.56483,0.621045 1.33504,1.755127 1.18099,1.971142 -0.15403,0.216015 -1.61745,-0.729053 -1.89985,-1.053077 -0.28243,-0.324023 -1.51477,-1.404101 -1.30937,-1.728125 z"
         id="path8"
         inkscape:label="eye" /><path
         id="lpe_path-effect8"
         style="fill:#ffffff;fill-opacity:1;stroke:#000000;stroke-width:0;stroke-dasharray:none;stroke-opacity:1"
         class="powerclip"
         d="M 373.44305,42.733284 H 433.9618 V 166.12279 h -60.51875 z m 44.181,9.09677 c -0.2054,0.324024 1.02694,1.404102 1.30937,1.728125 0.2824,0.324024 1.74582,1.269092 1.89985,1.053077 0.15405,-0.216015 -0.61616,-1.350097 -1.18099,-1.971142 -0.56482,-0.621046 -1.7715,-1.134082 -2.02823,-0.81006 z" /></clipPath></defs><!-- loom of the blade --><!-- Any thing in here will be cliped to the shape of the spoon --><rect
     style="fill:none"
     id="background"
     height="230"
     width="500"
     y="0"
     x="0" /><rect
     style="fill:url(#linearGradient16448)"
     transform="matrix(0.98768834,0.15643447,-0.15643447,0.98768834,0,0)"
     x="-83"
     y="27"
     height="28"
     width="200"
     id="shaft" /><g
     id="g47816"
     inkscape:label="spoon"
     clip-path="url(#clipPath4)"><use
       style="fill:#ffffff;fill-opacity:1;stroke:#000000;stroke-opacity:1"
       id="spoon_face"
       strokewidth="1"
       xlink:href="#spoonPath"
       x="0"
       y="0"
       width="500"
       height="230"
       inkscape:label="spoon face" /><rect
       transform="matrix(0.98768834,0.15643447,-0.15643447,0.98768834,0,0)"
       style="fill:url(#linearGradient20218);stroke:none"
       id="transverse_gradient"
       class="spoon"
       width="200"
       height="30"
       y="25.999762"
       x="116.99976" /><rect
       transform="matrix(0.98768834,0.15643447,-0.15643447,0.98768834,0,0)"
       style="fill:url(#radialGradient20215);stroke:none"
       id="longitudinal_gradient"
       class="spoon"
       width="200"
       height="30"
       y="25.999762"
       x="116.99976" /><g
       id="g6"
       inkscape:label="icon"
       transform="translate(7.072104,7.7793144)"><path
         style="fill:#ef3f20;fill-opacity:1;stroke:#000000;stroke-width:0;stroke-dasharray:none;stroke-opacity:1"
         d="m 382.89897,33.923699 4.09147,-0.187585 10.57901,11.91265 8.22819,-12.696238 4.28074,-0.03053 -10.05836,15.156394 3.93153,123.40069 -2.46892,-0.0505 -5.82617,-122.818376 z"
         id="path1"
         inkscape:label="pin"
         sodipodi:nodetypes="cccccccccc" /><path
         style="fill:#ef3f20;fill-opacity:1;stroke:#000000;stroke-width:0;stroke-dasharray:none;stroke-opacity:1"
         d="m 389.69575,161.12279 c 9.3247,-2.00425 5.01731,-0.98598 16.17677,-4.31084 7.19665,-2.14417 12.53682,-3.8516 13.38768,-7.06705 1.28723,-4.86452 -8.42006,-9.98162 -16.07142,-14.28572 -7.50185,-4.22 -15.74051,-8.71359 -16.70919,-13.64796 -0.80238,-4.08725 15.57001,-12.81448 16.32653,-13.77551 0.85339,-1.08408 14.79592,-8.673465 15.17857,-17.474486 0.38266,-8.80102 -11.09693,-13.647959 -16.70918,-17.219387 -5.61224,-3.571429 -15.68878,-7.142857 -15.68878,-11.862245 0,-4.719388 10.71429,-6.632653 13.13776,-7.015306 2.42347,-0.382653 10.84184,-0.255102 10.84184,-0.255102 l 9.78412,7.475692 4.33723,2.07235 5.27412,1.25434 c 0,0 -1.95148,-3.99173 -2.96545,-5.954955 -1.36599,-2.644802 -3.18662,-4.723005 -3.18662,-4.723005 0,0 -3.16687,-3.950953 -7.37606,-5.481565 -4.20918,-1.530612 -15.17857,-1.27551 -18.87755,-0.510204 -3.69898,0.765306 -18.23979,7.780612 -18.11224,12.627551 0.12755,4.846939 9.94898,12.627551 18.62245,16.32653 8.67347,3.69898 14.66836,8.801021 14.66836,12.244898 0,3.443878 -4.33673,9.94898 -9.43877,13.137754 -5.10204,3.18878 -10.07653,5.7398 -14.28572,8.67347 -4.20918,2.93367 -6.7602,5.22959 -6.7602,10.33163 0,5.10204 9.69388,12.11735 11.60714,13.26531 1.91327,1.14796 18.87755,8.92857 19.51531,13.13775 0.63775,4.20919 -8.29082,5.86735 -10.58674,6.88776 -5.04997,1.98995 -11.53708,5.5525 -12.08996,6.1483 z"
         id="path2"
         sodipodi:nodetypes="csssssssssccccscsssssssssssc"
         clip-path="url(#clipPath7)"
         inkscape:label="snake"
         transform="translate(-1.2248518,-1.7497883)"
         inkscape:path-effect="#path-effect8"
         inkscape:original-d="m 389.69575,161.12279 c 9.3247,-2.00425 5.01731,-0.98598 16.17677,-4.31084 7.19665,-2.14417 12.53682,-3.8516 13.38768,-7.06705 1.28723,-4.86452 -8.42006,-9.98162 -16.07142,-14.28572 -7.50185,-4.22 -15.74051,-8.71359 -16.70919,-13.64796 -0.80238,-4.08725 15.57001,-12.81448 16.32653,-13.77551 0.85339,-1.08408 14.79592,-8.673465 15.17857,-17.474486 0.38266,-8.80102 -11.09693,-13.647959 -16.70918,-17.219387 -5.61224,-3.571429 -15.68878,-7.142857 -15.68878,-11.862245 0,-4.719388 10.71429,-6.632653 13.13776,-7.015306 2.42347,-0.382653 10.84184,-0.255102 10.84184,-0.255102 l 9.78412,7.475692 4.33723,2.07235 5.27412,1.25434 c 0,0 -1.95148,-3.99173 -2.96545,-5.954955 -1.36599,-2.644802 -3.18662,-4.723005 -3.18662,-4.723005 0,0 -3.16687,-3.950953 -7.37606,-5.481565 -4.20918,-1.530612 -15.17857,-1.27551 -18.87755,-0.510204 -3.69898,0.765306 -18.23979,7.780612 -18.11224,12.627551 0.12755,4.846939 9.94898,12.627551 18.62245,16.32653 8.67347,3.69898 14.66836,8.801021 14.66836,12.244898 0,3.443878 -4.33673,9.94898 -9.43877,13.137754 -5.10204,3.18878 -10.07653,5.7398 -14.28572,8.67347 -4.20918,2.93367 -6.7602,5.22959 -6.7602,10.33163 0,5.10204 9.69388,12.11735 11.60714,13.26531 1.91327,1.14796 18.87755,8.92857 19.51531,13.13775 0.63775,4.20919 -8.29082,5.86735 -10.58674,6.88776 -5.04997,1.98995 -11.53708,5.5525 -12.08996,6.1483 z" /><path
         style="display:inline;fill:#ef3f20;fill-opacity:1;stroke:#000000;stroke-width:0;stroke-dasharray:none;stroke-opacity:1"
         d="m 425.20468,59.751044 c 0,0 -0.30054,1.490431 1.61272,2.383288 1.91327,0.892857 1.02955,0.705191 2.29121,1.319032 1.23182,0.599327 1.56941,0.935558 1.56941,0.935558 l 3.49445,0.179184 -2.77782,0.672229 -0.30682,2.987892 -1.07137,-3.1413 c 0,0 -1.15121,-0.723431 -2.60771,-1.728601 -1.29574,-0.894221 -3.46868,-2.423426 -3.46868,-2.423426 z"
         id="path3"
         sodipodi:nodetypes="csscccccscc"
         inkscape:label="tongue" /></g></g><!-- Outline of the spoon --><use
     style="fill:#ffffff;fill-opacity:0;stroke:#000000;stroke-width:1.0015748;stroke-dasharray:none"
     id="use4"
     strokewidth="1"
     xlink:href="#spoonPath"
     x="0"
     y="0"
     width="500"
     height="230"
     inkscape:label="spoon outline" /></svg>
