<?xml version="1.0" encoding="UTF-8" standalone="no"?>
<!--
I, the author of this work, hereby publish it under the following license:
Permission is granted to copy, distribute and/or modify this document under the 
terms of the GNU Free Documentation License, Version 1.2 or any later version 
published by the Free Software Foundation; with no Invariant Sections, no 
Front-Cover Texts, and no Back-Cover Texts. A copy of the license is included 
in the section entitled "GNU Free Documentation License".

This file is based on the template originaly found here: 
http://commons.wikimedia.org/wiki/Image:Rowing_Blade_Template.svg
For help on editing this file, please see that url.

Template by: Gary van der Merwe 2006
Derived work by:                                   <- Put your name here!
-->

<svg
   width="500"
   height="230"
   id="svg4726"
   version="1.1"
   inkscape:version="1.4 (e7c3feb1, 2024-10-09)"
   sodipodi:docname="St_Peters_Women_Rowing_Blade.svg"
   inkscape:export-filename="Hertford_W1_Rowing_Blade.svg"
   inkscape:export-xdpi="96"
   inkscape:export-ydpi="96"
   xml:space="preserve"
   xmlns:inkscape="http://www.inkscape.org/namespaces/inkscape"
   xmlns:sodipodi="http://sodipodi.sourceforge.net/DTD/sodipodi-0.dtd"
   xmlns:xlink="http://www.w3.org/1999/xlink"
   xmlns="http://www.w3.org/2000/svg"
   xmlns:svg="http://www.w3.org/2000/svg"
   xmlns:rdf="http://www.w3.org/1999/02/22-rdf-syntax-ns#"
   xmlns:cc="http://creativecommons.org/ns#"
   xmlns:dc="http://purl.org/dc/elements/1.1/"><metadata
     id="metadata4771"><rdf:RDF><cc:Work
         rdf:about=""><dc:format>image/svg+xml</dc:format><dc:type
           rdf:resource="http://purl.org/dc/dcmitype/StillImage" /></cc:Work></rdf:RDF></metadata><sodipodi:namedview
     pagecolor="#ffffff"
     bordercolor="#666666"
     borderopacity="1"
     objecttolerance="10"
     gridtolerance="10"
     guidetolerance="10"
     inkscape:pageopacity="0"
     inkscape:pageshadow="2"
     inkscape:window-width="2040"
     inkscape:window-height="1347"
     id="namedview4769"
     showgrid="false"
     inkscape:zoom="2.4251875"
     inkscape:cx="259.77373"
     inkscape:cy="197.92284"
     inkscape:window-x="167"
     inkscape:window-y="25"
     inkscape:window-maximized="0"
     inkscape:current-layer="g47816"
     inkscape:showpageshadow="2"
     inkscape:pagecheckerboard="0"
     inkscape:deskcolor="#d1d1d1" /><defs
     id="defs4728"><inkscape:path-effect
       effect="powerclip"
       message=""
       id="path-effect8"
       is_visible="true"
       lpeversion="1"
       inverse="true"
       flatten="false"
       hide_clip="false" /><inkscape:path-effect
       effect="powerclip"
       message=""
       id="path-effect5"
       is_visible="true"
       lpeversion="1"
       inverse="true"
       flatten="false"
       hide_clip="false" /><linearGradient
       y2="15"
       y1="-15"
       x2="0"
       gradientUnits="userSpaceOnUse"
       id="linearGradient20280"><stop
         id="stop20282"
         style="stop-color:#10a433;stop-opacity:1;"
         offset="0" /><stop
         id="stop20284"
         style="stop-color:#10b238;stop-opacity:1;"
         offset="0.44999999" /><stop
         id="stop20286"
         style="stop-color:#108629;stop-opacity:1;"
         offset="0.55000001" /><stop
         id="stop20288"
         style="stop-color:#10a433;stop-opacity:1;"
         offset="1" /></linearGradient><radialGradient
       spreadMethod="pad"
       id="radialGradient20274"
       cx="0"
       cy="0"
       r="77.459663"
       gradientTransform="scale(2.5819889,0.38729833)"
       fx="0"
       fy="0"
       gradientUnits="userSpaceOnUse"><stop
         offset="0.5"
         style="stop-color:#10a433;stop-opacity:0;"
         id="stop20276" /><stop
         offset="0.94999999"
         style="stop-color:#10a433;stop-opacity:1;"
         id="stop20278" /></radialGradient><linearGradient
       id="loomGradient"
       gradientUnits="userSpaceOnUse"
       x2="0"
       y1="-14"
       y2="14"><stop
         offset="0%"
         style="stop-color:black;"
         id="stop4731" /><stop
         offset="25%"
         style="stop-color:lightgray;"
         id="stop4733" /><stop
         offset="60%"
         style="stop-color:black;"
         id="stop4735" /></linearGradient><!-- Ensure these colors match up with the background of the spoon--><path
       id="spoonPath"
       d="M 105,75 C 105,76 106,77 107,77 C 139,89 170,149 177,181 C 231,199 389,201 455,201 C 458,201 461,198 461,195 L 450,27 C 450,24 447,21 444,21 L 113,43 C 112,43 111,44 111,45  Z" /><linearGradient
       inkscape:collect="always"
       xlink:href="#loomGradient"
       id="linearGradient16448"
       gradientUnits="userSpaceOnUse"
       gradientTransform="translate(117,40.999999)"
       y1="-14"
       x2="0"
       y2="14" /><radialGradient
       inkscape:collect="always"
       xlink:href="#radialGradient20274"
       id="radialGradient20215"
       gradientUnits="userSpaceOnUse"
       gradientTransform="matrix(2.5819889,0,0,0.38729833,116.99976,40.999762)"
       cx="0"
       cy="0"
       fx="0"
       fy="0"
       r="77.459663" /><linearGradient
       inkscape:collect="always"
       xlink:href="#linearGradient20280"
       id="linearGradient20218"
       gradientUnits="userSpaceOnUse"
       gradientTransform="translate(116.99976,40.999762)"
       y1="-15"
       x2="0"
       y2="15" /><clipPath
       clipPathUnits="userSpaceOnUse"
       id="clipPath4"><use
         style="fill:#ffffff;fill-opacity:0;stroke:#000000;stroke-width:1.00157;stroke-dasharray:none"
         id="use5"
         strokewidth="1"
         xlink:href="#spoonPath"
         x="0"
         y="0"
         width="500"
         height="230"
         inkscape:label="spoon clip" /></clipPath><clipPath
       clipPathUnits="userSpaceOnUse"
       id="clipPath5-6"><circle
         style="display:none;fill:#ffffff;fill-opacity:1;stroke:#000000;stroke-width:0;stroke-dasharray:none;stroke-opacity:1"
         id="circle5-2"
         cx="418.25143"
         cy="52.584553"
         r="0.63816208"
         d="m 418.8896,52.584553 a 0.63816208,0.63816208 0 0 1 -0.63817,0.638162 0.63816208,0.63816208 0 0 1 -0.63816,-0.638162 0.63816208,0.63816208 0 0 1 0.63816,-0.638162 0.63816208,0.63816208 0 0 1 0.63817,0.638162 z" /><path
         id="lpe_path-effect5-8"
         style="fill:#ffffff;fill-opacity:1;stroke:#000000;stroke-width:0;stroke-dasharray:none;stroke-opacity:1"
         class="powerclip"
         d="m 373.44305,42.733284 h 55.28144 V 177.57653 h -55.28144 z m 45.44655,9.851269 a 0.63816208,0.63816208 0 0 0 -0.63817,-0.638162 0.63816208,0.63816208 0 0 0 -0.63816,0.638162 0.63816208,0.63816208 0 0 0 0.63816,0.638162 0.63816208,0.63816208 0 0 0 0.63817,-0.638162 z" /></clipPath><inkscape:path-effect
       effect="powerclip"
       message=""
       id="path-effect5-5"
       is_visible="true"
       lpeversion="1"
       inverse="true"
       flatten="false"
       hide_clip="false" /><clipPath
       clipPathUnits="userSpaceOnUse"
       id="clipPath7"><path
         style="display:block;fill:#ffffff;fill-opacity:1;stroke:#000000;stroke-width:0;stroke-dasharray:none;stroke-opacity:1"
         d="m 417.62405,51.830054 c 0.25673,-0.324022 1.46341,0.189014 2.02823,0.81006 0.56483,0.621045 1.33504,1.755127 1.18099,1.971142 -0.15403,0.216015 -1.61745,-0.729053 -1.89985,-1.053077 -0.28243,-0.324023 -1.51477,-1.404101 -1.30937,-1.728125 z"
         id="path8"
         inkscape:label="eye" /></clipPath><path
       id="SVGID_7_"
       d="M261.113,3.5H10.092c0,0,0,138.937,0,258.714c0,161.081,140,299,251.714,341    c118.286-39,251.714-175.92,251.714-337c0-119.778,0-262.714,0-262.714H261.113z" /><path
       id="SVGID_3_"
       d="M261.207,44.003H44.092c0,0,0,120.17,0,223.768c0,139.324,121.09,258.613,217.714,294.941     C364.115,528.979,479.52,410.553,479.52,271.231c0-103.599,0-227.228,0-227.228H261.207z" /><rect
       id="SVGID_5_"
       x="261.806"
       y="44.003"
       width="217.714"
       height="518.709" /><rect
       id="SVGID_4_"
       x="44.092"
       y="44.003"
       width="217.714"
       height="518.709" /></defs><!-- loom of the blade --><!-- Any thing in here will be cliped to the shape of the spoon --><rect
     style="fill:none"
     id="background"
     height="230"
     width="500"
     y="0"
     x="0" /><rect
     style="fill:url(#linearGradient16448)"
     transform="matrix(0.98768834,0.15643447,-0.15643447,0.98768834,0,0)"
     x="-83"
     y="27"
     height="28"
     width="200"
     id="shaft" /><g
     id="g47816"
     inkscape:label="spoon"
     clip-path="url(#clipPath4)"><use
       style="fill:#10a433;fill-opacity:1;stroke:#000000;stroke-opacity:1"
       id="spoon_face"
       strokewidth="1"
       xlink:href="#spoonPath"
       x="0"
       y="0"
       width="500"
       height="230"
       inkscape:label="spoon face" /><rect
       transform="matrix(0.98768834,0.15643447,-0.15643447,0.98768834,0,0)"
       style="fill:url(#linearGradient20218);stroke:none"
       id="transverse_gradient"
       class="spoon"
       width="200"
       height="30"
       y="25.999762"
       x="116.99976" /><rect
       transform="matrix(0.98768834,0.15643447,-0.15643447,0.98768834,0,0)"
       style="fill:url(#radialGradient20215);stroke:none"
       id="longitudinal_gradient"
       class="spoon"
       width="200"
       height="30"
       y="25.999762"
       x="116.99976" /><g
       id="g16"
       transform="matrix(0.62320865,-0.043579,0.043579,0.62320865,270.48747,-51.087762)"
       inkscape:label="keys"><path
         fill="url(#SVGID_147_)"
         stroke="#000000"
         stroke-width="0.88"
         stroke-miterlimit="10"
         d="m 101.6,345.839 c 0.077,-3.626 -4.558,-8.613 -9.723,-5.141 -5.165,3.473 0.198,7.937 0.198,7.937 0,0 0.09,-3.028 1.007,-3.232 0.917,-0.203 1.724,-0.663 2.419,2.471 0.695,3.134 -3.615,6.417 -10.153,2.254 -3.842,-2.446 -6.173,-6.833 -6.498,-11.523 0.005,-0.329 0.162,-6.008 4.392,-6.883 4.356,-0.903 5.439,-0.541 5.439,-0.541 0,0 -2.576,-3.789 -5.473,-2.95 -0.809,0.233 -1.509,0.578 -2.104,0.95 0.067,-0.111 0.13,-0.223 0.201,-0.333 4.668,-7.332 13.4,-12.8 20.079,-8.547 6.679,4.253 6.214,12.633 6.214,12.633 0,0 5.526,-6.537 4.534,-9.138 -0.992,-2.6 -3.724,-6.899 -9.664,-10.353 -5.94,-3.454 -15.053,-0.79 -21.785,4.836 -2.542,2.123 -4.587,5.013 -6.013,8.275 -0.603,-0.761 -1.323,-1.461 -2.083,-1.747 -2.013,-0.756 -3.827,0.134 -3.827,0.134 0,0 2.552,2.074 3.231,4.41 0.643,2.213 0.784,2.255 0.503,5.652 -0.011,0.12 -0.021,0.239 -0.03,0.359 -0.007,0.079 -0.012,0.15 -0.02,0.233 l 0.003,-0.005 c -0.205,2.841 0.036,5.705 0.789,8.402 2.541,9.101 10.864,12.628 19.008,12.103 8.147,-0.523 9.278,-6.629 9.356,-10.256 z"
         id="path548"
         style="fill:#facc01;fill-opacity:1;stroke:#facc01;stroke-opacity:1" /><path
         fill="url(#SVGID_148_)"
         stroke="#000000"
         stroke-width="0.88"
         stroke-miterlimit="10"
         d="m 101.535,362.01 c 2.97,7.603 9.687,13.65 19.008,12.104 2.762,-0.46 5.459,-1.454 7.947,-2.841 l -0.004,0.004 c 0.073,-0.042 0.134,-0.076 0.203,-0.116 0.104,-0.06 0.209,-0.118 0.312,-0.179 2.96,-1.691 3.057,-1.582 5.334,-1.935 2.404,-0.374 5.362,1.062 5.362,1.062 0,0 0.04,-2.021 -1.498,-3.524 -0.58,-0.567 -1.519,-0.923 -2.463,-1.147 2.353,-2.672 4.105,-5.748 4.955,-8.95 2.249,-8.479 0.807,-17.864 -4.836,-21.785 -5.643,-3.921 -10.694,-4.578 -13.47,-4.375 -2.776,0.202 -6.361,7.974 -6.361,7.974 0,0 7.397,-3.967 14.076,0.285 6.679,4.252 5.419,14.478 0.75,21.81 -0.07,0.11 -0.145,0.214 -0.217,0.322 0.086,-0.696 0.102,-1.476 -0.028,-2.307 -0.467,-2.979 -4.989,-3.711 -4.989,-3.711 0,0 0.786,0.828 1.812,5.157 0.997,4.203 -4.082,6.749 -4.378,6.893 -4.387,1.69 -9.349,1.433 -13.19,-1.013 -6.539,-4.163 -5.388,-9.458 -2.254,-10.152 3.134,-0.696 3.059,0.229 3.263,1.146 0.204,0.918 -2.502,2.28 -2.502,2.28 0,0 6.314,2.97 7.275,-3.179 0.96,-6.148 -5.519,-8.239 -8.772,-6.635 -3.252,1.602 -8.307,5.211 -5.335,12.812 z"
         id="path551"
         style="fill:#facc01;fill-opacity:1;stroke:#facc01;stroke-opacity:1" /><path
         fill="url(#SVGID_149_)"
         stroke="#000000"
         stroke-width="0.88"
         stroke-miterlimit="10"
         d="m 214.387,174.512 c -1.651,-1.051 -3.997,-0.321 -5.24,1.632 l -95.59,150.136 5.978,3.806 95.591,-150.136 c 1.242,-1.952 0.912,-4.387 -0.739,-5.438 z"
         id="path554"
         style="fill:#facc01;fill-opacity:1;stroke:#facc01;stroke-opacity:1" /><polygon
         fill="url(#SVGID_150_)"
         stroke="#000000"
         stroke-width="0.88"
         stroke-miterlimit="10"
         points="197.712,214.676 202.756,217.888 200.338,221.686 210.052,227.871 212.978,229.734 214.882,226.746 211.955,224.882 215.266,219.683 218.192,221.546 220.988,217.155 214.512,213.033 211.716,217.423 206.548,214.132 209.343,209.742 203.303,205.896 207.585,199.17 213.625,203.016 216.42,198.626 221.589,201.917 218.794,206.307 225.27,210.43 228.064,206.04 225.139,204.177 228.448,198.978 231.375,200.84 233.279,197.851 230.352,195.988 220.637,189.803 218.219,193.602 213.176,190.39 215.593,186.592 215.594,186.591 212.916,184.887 192.617,216.77 195.294,218.475 "
         id="polygon557"
         style="fill:#facc01;fill-opacity:1;stroke:#facc01;stroke-opacity:1" /><polygon
         fill="url(#SVGID_151_)"
         stroke="#000000"
         stroke-width="0.88"
         stroke-miterlimit="10"
         points="124.328,305.789 133.544,311.657 132.354,313.525 123.139,307.657 "
         id="polygon560"
         style="fill:#facc01;fill-opacity:1;stroke:#facc01;stroke-opacity:1" /><polygon
         fill="url(#SVGID_152_)"
         stroke="#000000"
         stroke-width="0.88"
         stroke-miterlimit="10"
         points="119.094,314.009 128.311,319.876 127.2,321.62 117.984,315.752 "
         id="polygon563"
         style="fill:#facc01;fill-opacity:1;stroke:#facc01;stroke-opacity:1" /><path
         fill="url(#SVGID_153_)"
         stroke="#000000"
         stroke-width="0.88"
         stroke-miterlimit="10"
         d="m 132.467,317.885 c -0.92,1.445 -4.649,0.716 -8.329,-1.627 -3.68,-2.343 -5.917,-5.413 -4.998,-6.857 0.92,-1.444 4.648,-0.716 8.329,1.626 3.68,2.343 5.917,5.413 4.998,6.858 z"
         id="path566"
         style="fill:#facc01;fill-opacity:1;stroke:#facc01;stroke-opacity:1" /><path
         fill="url(#SVGID_154_)"
         stroke="#000000"
         stroke-width="0.88"
         stroke-miterlimit="10"
         d="m 117.273,316.35 c -0.692,0.715 -1.346,1.533 -1.928,2.447 -0.348,0.546 -0.654,1.1 -0.92,1.656 1.1,1.574 2.52,3.126 4.321,4.273 0.027,0.018 0.052,0.037 0.079,0.055 0.027,0.017 0.056,0.031 0.083,0.047 1.733,1.104 3.658,1.73 5.485,2.071 0.411,-0.496 0.801,-1.03 1.164,-1.601 0.583,-0.915 1.047,-1.853 1.402,-2.782 z"
         id="path569"
         style="fill:#facc01;fill-opacity:1;stroke:#facc01;stroke-opacity:1" /><path
         fill="url(#SVGID_155_)"
         stroke="#000000"
         stroke-width="0.88"
         stroke-miterlimit="10"
         d="m 118.113,325.899 c -0.027,-0.018 -0.055,-0.032 -0.083,-0.048 -0.027,-0.019 -0.051,-0.038 -0.078,-0.055 -5.542,-3.528 -7.499,-10.901 -7.499,-10.901 0,0 -0.495,8.611 -1.289,12.745 -0.793,4.133 -4.962,11.368 -1.164,13.786 0.027,0.017 0.056,0.031 0.084,0.046 0.026,0.018 0.05,0.039 0.077,0.056 3.799,2.419 8.59,-4.419 11.999,-6.888 3.41,-2.468 11.003,-6.56 11.003,-6.56 0,0 -7.507,1.348 -13.05,-2.181 z"
         id="path572"
         style="fill:#facc01;fill-opacity:1;stroke:#facc01;stroke-opacity:1" /><path
         fill="url(#SVGID_156_)"
         stroke="#000000"
         stroke-width="0.88"
         stroke-miterlimit="10"
         d="m 209.794,356.096 c 8.145,0.525 16.467,-3.001 19.008,-12.103 0.753,-2.697 0.994,-5.561 0.789,-8.402 l 0.003,0.005 c -0.008,-0.083 -0.013,-0.154 -0.02,-0.233 -0.009,-0.12 -0.019,-0.239 -0.03,-0.359 -0.28,-3.397 -0.139,-3.439 0.503,-5.652 0.679,-2.336 3.231,-4.41 3.231,-4.41 0,0 -1.813,-0.89 -3.827,-0.134 -0.759,0.286 -1.48,0.986 -2.083,1.747 -1.426,-3.263 -3.471,-6.152 -6.013,-8.275 -6.732,-5.625 -15.845,-8.29 -21.785,-4.836 -5.94,3.454 -8.672,7.753 -9.664,10.353 -0.992,2.601 4.534,9.138 4.534,9.138 0,0 -0.464,-8.381 6.214,-12.633 6.678,-4.252 15.411,1.215 20.079,8.547 0.07,0.11 0.133,0.222 0.201,0.333 -0.595,-0.373 -1.295,-0.717 -2.104,-0.95 -2.896,-0.838 -5.473,2.95 -5.473,2.95 0,0 1.083,-0.362 5.439,0.541 4.23,0.875 4.387,6.554 4.392,6.883 -0.325,4.69 -2.656,9.077 -6.498,11.523 -6.538,4.163 -10.849,0.88 -10.153,-2.254 0.696,-3.134 1.502,-2.674 2.419,-2.471 0.917,0.204 1.007,3.232 1.007,3.232 0,0 5.362,-4.464 0.198,-7.937 -5.165,-3.472 -9.8,1.514 -9.723,5.141 0.077,3.627 1.212,9.732 9.356,10.256 z"
         id="path575"
         style="fill:#facc01;fill-opacity:1;stroke:#facc01;stroke-opacity:1" /><path
         fill="url(#SVGID_157_)"
         stroke="#000000"
         stroke-width="0.88"
         stroke-miterlimit="10"
         d="m 195.17,349.195 c -3.253,-1.604 -9.732,0.487 -8.772,6.635 0.961,6.149 7.275,3.179 7.275,3.179 0,0 -2.706,-1.362 -2.502,-2.28 0.204,-0.917 0.128,-1.842 3.263,-1.146 3.134,0.695 4.285,5.989 -2.254,10.152 -3.842,2.446 -8.803,2.703 -13.19,1.013 -0.296,-0.144 -5.375,-2.689 -4.378,-6.893 1.025,-4.329 1.812,-5.157 1.812,-5.157 0,0 -4.522,0.731 -4.989,3.711 -0.13,0.831 -0.114,1.61 -0.028,2.307 -0.072,-0.108 -0.147,-0.212 -0.217,-0.322 -4.668,-7.332 -5.928,-17.558 0.75,-21.81 6.679,-4.252 14.076,-0.285 14.076,-0.285 0,0 -3.585,-7.772 -6.361,-7.974 -2.776,-0.202 -7.827,0.455 -13.47,4.375 -5.643,3.921 -7.084,13.306 -4.836,21.785 0.849,3.202 2.602,6.277 4.955,8.95 -0.944,0.224 -1.884,0.58 -2.463,1.147 -1.537,1.504 -1.498,3.524 -1.498,3.524 0,0 2.958,-1.436 5.362,-1.062 2.277,0.354 2.375,0.244 5.334,1.935 0.103,0.061 0.208,0.12 0.312,0.179 0.069,0.04 0.13,0.074 0.203,0.116 l -0.004,-0.004 c 2.488,1.387 5.185,2.381 7.947,2.841 9.321,1.547 16.038,-4.501 19.008,-12.104 2.972,-7.598 -2.082,-11.207 -5.335,-12.812 z"
         id="path578"
         style="fill:#facc01;fill-opacity:1;stroke:#facc01;stroke-opacity:1" /><path
         fill="url(#SVGID_158_)"
         stroke="#000000"
         stroke-width="0.88"
         stroke-miterlimit="10"
         d="m 87.654,174.512 c 1.651,-1.051 3.997,-0.321 5.24,1.632 l 95.59,150.136 -5.978,3.806 -95.591,-150.137 c -1.242,-1.951 -0.912,-4.386 0.739,-5.437 z"
         id="path581"
         style="fill:#facc01;fill-opacity:1;stroke:#facc01;stroke-opacity:1" /><polygon
         fill="url(#SVGID_159_)"
         stroke="#000000"
         stroke-width="0.88"
         stroke-miterlimit="10"
         points="104.329,214.676 99.285,217.888 101.703,221.686 91.989,227.871 89.062,229.734 87.159,226.746 90.086,224.882 86.775,219.683 83.849,221.546 81.053,217.155 87.529,213.033 90.325,217.423 95.493,214.132 92.698,209.742 98.738,205.896 94.456,199.17 88.416,203.016 85.621,198.626 80.452,201.917 83.247,206.307 76.771,210.43 73.977,206.04 76.902,204.177 73.593,198.978 70.665,200.84 68.762,197.851 71.689,195.988 81.404,189.803 83.822,193.602 88.865,190.39 86.448,186.592 86.447,186.591 89.125,184.887 109.424,216.77 106.747,218.475 "
         id="polygon584"
         style="fill:#facc01;fill-opacity:1;stroke:#facc01;stroke-opacity:1" /><polygon
         fill="url(#SVGID_160_)"
         stroke="#000000"
         stroke-width="0.88"
         stroke-miterlimit="10"
         points="177.713,305.789 168.497,311.657 169.686,313.525 178.902,307.657 "
         id="polygon587"
         style="fill:#facc01;fill-opacity:1;stroke:#facc01;stroke-opacity:1" /><polygon
         fill="url(#SVGID_161_)"
         stroke="#000000"
         stroke-width="0.88"
         stroke-miterlimit="10"
         points="182.947,314.009 173.73,319.876 174.841,321.62 184.057,315.752 "
         id="polygon590"
         style="fill:#facc01;fill-opacity:1;stroke:#facc01;stroke-opacity:1" /><path
         fill="url(#SVGID_162_)"
         stroke="#000000"
         stroke-width="0.88"
         stroke-miterlimit="10"
         d="m 169.574,317.885 c 0.92,1.445 4.649,0.716 8.329,-1.627 3.68,-2.343 5.917,-5.413 4.998,-6.857 -0.92,-1.444 -4.648,-0.716 -8.329,1.626 -3.68,2.343 -5.917,5.413 -4.998,6.858 z"
         id="path593"
         style="fill:#facc01;fill-opacity:1;stroke:#facc01;stroke-opacity:1" /><path
         fill="url(#SVGID_163_)"
         stroke="#000000"
         stroke-width="0.88"
         stroke-miterlimit="10"
         d="m 184.768,316.35 c 0.692,0.715 1.346,1.533 1.928,2.447 0.348,0.546 0.654,1.1 0.92,1.656 -1.1,1.574 -2.52,3.126 -4.321,4.273 -0.027,0.018 -0.052,0.037 -0.079,0.055 -0.027,0.017 -0.056,0.031 -0.083,0.047 -1.733,1.104 -3.658,1.73 -5.485,2.071 -0.411,-0.496 -0.801,-1.03 -1.164,-1.601 -0.583,-0.915 -1.047,-1.853 -1.402,-2.782 z"
         id="path596"
         style="fill:#facc01;fill-opacity:1;stroke:#facc01;stroke-opacity:1" /><path
         fill="url(#SVGID_164_)"
         stroke="#000000"
         stroke-width="0.88"
         stroke-miterlimit="10"
         d="m 183.928,325.899 c 0.027,-0.018 0.055,-0.032 0.083,-0.048 0.027,-0.019 0.051,-0.038 0.078,-0.055 5.542,-3.528 7.499,-10.901 7.499,-10.901 0,0 0.495,8.611 1.289,12.745 0.793,4.133 4.962,11.368 1.164,13.786 -0.027,0.017 -0.056,0.031 -0.084,0.046 -0.026,0.018 -0.05,0.039 -0.077,0.056 -3.799,2.419 -8.59,-4.419 -11.999,-6.888 -3.41,-2.468 -11.003,-6.56 -11.003,-6.56 0,0 7.507,1.348 13.05,-2.181 z"
         id="path599"
         style="fill:#facc01;fill-opacity:1;stroke:#facc01;stroke-opacity:1" /></g></g><!-- Outline of the spoon --><use
     style="fill:#ffffff;fill-opacity:0;stroke:#000000;stroke-width:1.0015748;stroke-dasharray:none"
     id="use4"
     strokewidth="1"
     xlink:href="#spoonPath"
     x="0"
     y="0"
     width="500"
     height="230"
     inkscape:label="spoon outline" /></svg>
